<?xml version="1.0" standalone="no"?>
<!DOCTYPE svg PUBLIC "-//W3C//DTD SVG 1.1//EN" "http://www.w3.org/Graphics/SVG/1.1/DTD/svg11.dtd" >
<svg xmlns="http://www.w3.org/2000/svg" xmlns:xlink="http://www.w3.org/1999/xlink" version="1.1">
<metadata></metadata>
<defs>
<font id="stcitalic" horiz-adv-x="1218" >
<font-face units-per-em="2048" ascent="1638" descent="-410" />
<missing-glyph horiz-adv-x="524" />
<glyph horiz-adv-x="0" />
<glyph unicode="&#xd;" horiz-adv-x="524" />
<glyph unicode=" "  horiz-adv-x="524" />
<glyph unicode="&#x09;" horiz-adv-x="524" />
<glyph unicode="&#xa0;" horiz-adv-x="524" />
<glyph unicode="!" horiz-adv-x="448" d="M350 358q-4 -25 -19.5 -41t-37.5 -16h-109l95 889q2 25 19 41t40 16h106zM137 104q4 43 37 73t76 30t69.5 -30t22.5 -73q-4 -45 -37 -74.5t-76 -29.5t-69.5 29.5t-22.5 74.5z" />
<glyph unicode="&#x22;" horiz-adv-x="624" d="M477 901q2 -29 -17.5 -47t-41.5 -18h-60q-4 104 -8 197t-8 198q0 29 17.5 47t46.5 18h88zM233 901q2 -29 -17 -47t-42 -18h-59q-4 104 -8.5 197t-8.5 198q0 29 17.5 47t46.5 18h88z" />
<glyph unicode="#" d="M670 0q-25 0 -40.5 15.5t-8.5 52.5l65 313h-287q-25 -117 -46 -215t-38 -166h-75q-25 0 -40.5 15.5t-9.5 52.5l66 313h-90q-25 -2 -41 13.5t-16 35.5v76h174l82 381h-95q-25 -2 -41 13t-16 36v76h178l84 381h76q25 0 40 -15.5t9 -52.5q-4 -10 -21.5 -96t-46.5 -217h289 l84 381h76q25 0 40 -15.5t9 -52.5q-4 -10 -21.5 -96t-45.5 -217h92q25 0 40 -14.5t15 -39.5v-71h-172l-82 -381h94q25 0 40.5 -14.5t15.5 -38.5v-72h-177q-25 -117 -46 -215t-38 -166h-75zM426 506h287l82 381h-287z" />
<glyph unicode="$" horiz-adv-x="1208" d="M524 1593h125v-293q70 -6 127.5 -17t97.5 -23q49 -14 87 -29v-74q0 -23 -9.5 -34t-44.5 -7q-16 4 -50 13.5t-79 19.5t-98 18.5t-109 8.5q-96 0 -152.5 -14.5t-86 -41t-38.5 -64.5t-9 -83q0 -68 28.5 -106t72.5 -56t95 -25.5t88 -11.5t80 -8t92.5 -15.5t98.5 -32t89 -58 t65.5 -94t25.5 -136.5q0 -72 -17.5 -134.5t-61.5 -111.5t-117.5 -80.5t-186.5 -40.5v-264h-125v262q-45 2 -94 8.5t-96.5 15.5t-88 19.5t-71.5 22.5v100q0 18 10 25.5t27 1.5q33 -12 125 -34.5t215 -22.5q180 0 255.5 56t75.5 169q0 82 -41 126t-99 65.5t-119.5 27.5 t-111.5 11t-115 19.5t-118 47.5t-89 91t-36 155q0 94 31 158.5t83 102.5t121.5 55t147.5 22v290z" />
<glyph unicode="%" horiz-adv-x="1163" d="M881 1280q-8 -12 -98.5 -156.5t-653.5 -1041.5l90 -55q12 -8 23.5 -10.5t26 3t26.5 25.5q6 8 760 1212l-72 46q-18 10 -35.5 12t-35 -5t-31.5 -30zM866 45q-63 0 -103 16.5t-63.5 47t-32 73.5t-8.5 94t8.5 94.5t32 74t63.5 48t103 17.5t103.5 -17.5t63 -48t31.5 -73.5 t9 -95q0 -51 -9 -94t-31.5 -73.5t-63 -47t-103.5 -16.5zM866 408q-72 0 -87 -37t-15 -95q0 -29 2 -52t12 -39.5t30.5 -27t57.5 -10.5t56.5 10.5t30 27t12.5 40t2 51.5q0 29 -2 52.5t-12.5 41t-30 28t-56.5 10.5zM309 903q-63 0 -103 16.5t-63.5 47t-33 73.5t-9.5 95 q0 51 9.5 94t33 73.5t63.5 47t103 16.5t103.5 -16.5t64 -47t31.5 -73.5t8 -94t-8 -94.5t-31.5 -74t-64 -47t-103.5 -16.5zM309 1266q-72 0 -87 -37t-15 -94q0 -29 2 -52.5t12 -40t30.5 -26.5t57.5 -10q35 0 55.5 10t31 26.5t13.5 40t3 52.5q0 57 -16.5 94t-86.5 37z" />
<glyph unicode="&#x26;" horiz-adv-x="1296" d="M1225 715q-12 -66 -34 -133.5t-48.5 -130t-55 -116.5t-57.5 -93q61 -78 98 -124t43 -52q16 -20 15.5 -33t-8 -20t-16.5 -10t-11 -3h-127q-23 29 -50.5 62.5t-55.5 74.5q-63 -63 -166 -112.5t-248 -49.5q-215 0 -308.5 100.5t-74.5 286.5q8 80 36.5 139.5t71.5 105.5 t96.5 82t108.5 67q-25 35 -50.5 78t-43.5 88t-28.5 92t-6.5 90q16 147 111.5 230t281.5 83q121 0 197 -21.5t106 -37.5l-8 -76q-2 -20 -8 -27.5t-15 -8.5t-18.5 3t-15.5 6q-47 18 -107.5 33t-126.5 15q-59 0 -102 -15.5t-72.5 -42t-46 -63.5t-20.5 -78q-2 -31 8 -70 t26.5 -79t38 -74.5t41.5 -57.5l371 -481q53 96 93 206.5t55 231.5h86q29 0 39 -18t6 -47zM512 666q-109 -55 -167 -124t-71 -173q-12 -127 52.5 -204t193.5 -77q109 0 190 42t128 97z" />
<glyph unicode="'" horiz-adv-x="352" d="M227 901q2 -29 -17.5 -47t-41.5 -18h-59q-4 104 -8.5 197t-8.5 198q0 29 17.5 47t46.5 18h88z" />
<glyph unicode="(" horiz-adv-x="614" d="M627 1356q-49 -78 -91 -147.5t-77 -144.5t-59.5 -163t-37.5 -201q-10 -98 -0.5 -191t29 -178t47 -158t54.5 -130q8 -16 -5.5 -29.5t-33.5 -13.5h-101q-2 0 -31.5 58.5t-60.5 153.5t-51.5 219t-5.5 253q16 156 64 286t99.5 224t92.5 148l41 53h104q16 0 25.5 -10.5 t-2.5 -28.5z" />
<glyph unicode=")" horiz-adv-x="614" d="M272 1356q-8 18 3.5 28.5t27.5 10.5h105q61 -106 91.5 -200.5t52 -224.5t5.5 -286q-14 -129 -61 -253t-98.5 -219t-133.5 -212h-100q-20 0 -31.5 13.5t0.5 29.5q39 57 81 130t80 158t65.5 178t37.5 191q12 113 6 201t-24.5 163t-47 144.5t-59.5 147.5z" />
<glyph unicode="*" horiz-adv-x="772" d="M195 1317q-14 20 -9.5 42.5t21.5 33.5l49 30l129 -206l100 159q31 47 76 19l47 -29l-125 -199h181q25 0 40 -14t15 -39v-55h-236l97 -154q14 -20 10 -40.5t-27 -33.5l-45 -30l-133 211l-100 -162q-10 -23 -33 -28t-39 5l-51 33l125 199h-176q-25 0 -41.5 14t-16.5 35v59 h236z" />
<glyph unicode="+" horiz-adv-x="768" d="M307 754q0 25 13.5 40t37.5 15h107v-217h162q25 0 40 -14.5t15 -38.5v-105h-217v-160q0 -27 -14.5 -42t-36.5 -15h-107v217h-162q-25 0 -41 14.5t-16 34.5v109h219v162z" />
<glyph unicode="," horiz-adv-x="407" d="M219 213q53 0 85 -37t26 -94q-4 -39 -20.5 -79t-38 -77t-42 -68.5t-32.5 -52.5l-78 27q-39 16 -15 66l48 84q-33 14 -51.5 42.5t-14.5 69.5q6 51 44 85t89 34z" />
<glyph unicode="-" horiz-adv-x="763" d="M139 434q-25 0 -41 14.5t-16 34.5v109h536q25 0 40.5 -14.5t15.5 -38.5v-105h-535z" />
<glyph unicode="." horiz-adv-x="376" d="M96 104q0 43 30 73t73 30q45 0 74.5 -30t29.5 -73q0 -45 -29.5 -74.5t-74.5 -29.5q-43 0 -73 29.5t-30 74.5z" />
<glyph unicode="/" horiz-adv-x="808" d="M223 -125h-127q-25 0 -39 16.5t0 51.5l525 1417h127q25 0 37 -15.5t2 -52.5z" />
<glyph unicode="0" horiz-adv-x="1110" d="M557 -12q-154 0 -239 56t-123.5 152.5t-39.5 226.5t13 275q16 145 49 269.5t94.5 214.5t155.5 141t235 51q150 0 236 -51t126 -141t43 -214t-13 -270q-14 -145 -37 -275t-78 -226.5t-154.5 -152.5t-267.5 -56zM688 1239q-98 0 -161.5 -35t-103.5 -103.5t-60.5 -170 t-34.5 -232.5q-14 -143 -15.5 -248.5t23 -174t82 -102.5t155.5 -34t162 32t103 99.5t61.5 174t36.5 253.5q14 129 13 230.5t-25.5 170t-81 104.5t-154.5 36z" />
<glyph unicode="1" horiz-adv-x="632" d="M565 1364q51 0 45 -55l-133 -1262q-6 -47 -55 -47h-107l127 1212h-174q-23 0 -32 13.5t-7 40.5l11 98h325v0z" />
<glyph unicode="2" horiz-adv-x="1050" d="M285 1280q61 25 131 47q55 16 127.5 31.5t144.5 15.5q111 0 185.5 -23.5t120.5 -66.5t61.5 -101.5t9.5 -127.5q-8 -66 -39 -126.5t-83 -124t-123.5 -133t-160.5 -153.5l-368 -366h659q18 0 31.5 -5.5t9.5 -33.5l-10 -113h-752q-51 0 -81.5 25.5t-38 64.5t8 83t52.5 79 l405 385q143 131 234.5 229.5t99.5 182.5q10 98 -44 144t-201 46q-96 0 -170 -23.5t-123 -44.5q-27 -12 -37 -10t-17 23l-32 96v0z" />
<glyph unicode="3" horiz-adv-x="991" d="M795 717q49 -12 81.5 -35t52 -60.5t26 -95t-4.5 -137.5q-8 -82 -29.5 -152.5t-72.5 -123t-141.5 -83t-233.5 -30.5q-66 0 -134.5 11.5t-125.5 27.5q-66 18 -123 41l47 110q12 33 49 19q35 -12 115 -34.5t184 -22.5q68 0 120 9t89 35.5t59.5 73.5t30.5 123q6 57 2 102.5 t-23.5 76t-60 46t-108.5 15.5h-281l13 112q2 27 18 36.5t39 9.5h174q72 0 119 10t77.5 37.5t47 75t22.5 118.5q14 119 -51 163t-180 44q-84 0 -159 -20.5t-130 -34.5q-25 -6 -36 -4t-15 22l-10 105q51 18 105 31.5t119.5 24.5t141.5 11q135 0 214 -30.5t117 -80t45 -111.5 t1 -126q-4 -49 -15.5 -97t-33 -90t-56 -75t-85.5 -47z" />
<glyph unicode="4" horiz-adv-x="1058" d="M999 500q31 0 40.5 -14.5t7.5 -34.5l-13 -103h-164l-32 -319q-4 -27 -18.5 -36t-35.5 -9h-110l37 364h-496q-25 0 -53.5 15.5t-46 45t-14.5 75.5t36 85l561 701q43 51 86 77.5t96.5 19.5t72 -41t12.5 -87l-78 -739h112zM801 1190l-543 -692h469z" />
<glyph unicode="5" horiz-adv-x="1026" d="M1049 1266q-2 -20 -9.5 -34.5t-38.5 -14.5h-485l-158 -422h265q98 0 169.5 -18.5t116.5 -63.5t61.5 -120t4.5 -185q-10 -104 -49 -184.5t-101.5 -133.5t-142.5 -79.5t-172 -26.5q-84 0 -154.5 14t-127 34.5t-103.5 47.5l49 110q8 20 22.5 20.5t28.5 -5.5q8 -4 33 -14.5 t62.5 -21.5t85 -20.5t100.5 -9.5q102 0 162.5 24.5t93.5 63.5t45 86t16 95q8 70 -3 116.5t-38.5 74.5t-68.5 39t-90 11h-328q-74 0 -93.5 41t-6.5 86l172 455q16 51 41.5 77.5t52 39t52.5 14.5t48 2h498z" />
<glyph unicode="6" horiz-adv-x="1058" d="M651 825q80 0 154 -11t126 -53t78.5 -124t12.5 -221q-10 -92 -42 -172t-89 -137.5t-142 -90t-202 -32.5q-125 0 -206 42t-125 108.5t-57.5 150.5t-2.5 170l49 463q12 129 67.5 217t136 141t176 75.5t189.5 22.5q59 0 105.5 -6t80 -14t56.5 -19q-35 -80 -41 -96 q-16 -33 -53 -20q-16 4 -61.5 10t-104.5 10q-176 0 -276.5 -78t-114.5 -219l-21 -184q49 18 99.5 31.5t104.5 24.5t103 11zM563 137q96 0 154.5 24.5t90.5 64.5t44 90.5t18 99.5q6 63 -1 113.5t-32.5 83t-74.5 50t-127 17.5q-68 0 -124 -9t-99 -20.5t-78 -25.5l-19 -162 q-8 -84 -2 -144.5t35 -101.5t80 -60.5t135 -19.5z" />
<glyph unicode="7" horiz-adv-x="935" d="M883 1364q100 0 125.5 -64.5t-39.5 -187.5l-645 -1112h-129q-23 0 -27 15.5t2 31.5q2 2 684 1165h-631q-29 0 -37 13.5t-6 36.5l10 102h693z" />
<glyph unicode="8" horiz-adv-x="1064" d="M866 731q63 -27 101.5 -65.5t57.5 -84.5t23.5 -98.5t-1.5 -105.5q-8 -78 -42 -148.5t-96.5 -125t-157 -87t-223.5 -32.5q-115 0 -198.5 29.5t-137 83t-75 126t-13.5 160.5q12 123 82 213t197 135q-43 23 -76 62q-27 35 -46 90t-11 139q10 96 48 163.5t95.5 109.5 t131 60.5t155.5 18.5q193 0 288 -86t76 -256q-8 -86 -51 -167t-127 -134zM666 1233q-123 0 -187.5 -51.5t-75.5 -143.5q-8 -78 23 -128t72 -79q49 -35 112 -53q72 12 129 45q49 29 93.5 80t54.5 137q10 92 -41 142.5t-180 50.5zM545 137q68 0 126 15.5t103 48t76 82 t37 114.5q10 104 -67 174t-220 95q-53 -14 -108.5 -36t-101.5 -52.5t-77.5 -74.5t-38.5 -106q-8 -76 16.5 -126t65.5 -79.5t92.5 -42t96.5 -12.5z" />
<glyph unicode="9" horiz-adv-x="1005" d="M555 502q-84 0 -158.5 19.5t-129 65.5t-82 125t-15.5 199q12 109 47 198t96.5 148.5t144.5 88t173 28.5q147 0 229 -41t119 -120.5t37 -198.5t-17 -275q-6 -68 -15 -150.5t-23.5 -166.5t-47 -163t-93 -140.5t-151.5 -98t-227 -36.5q-47 0 -94 7t-86 17t-76 27 q6 16 17.5 50t15.5 50q12 29 27.5 33t34.5 0q8 -2 26.5 -7t44 -10.5t55 -9.5t58.5 -4q88 0 145.5 20.5t94 52.5t58 69.5t35 72.5t21.5 74t13.5 76t7.5 76q-33 -23 -73 -38.5t-92 -26.5t-120 -11zM625 1239q-141 0 -210 -78t-83 -225q-6 -49 -6 -101.5t21.5 -94.5t72.5 -68.5 t147 -26.5q66 0 118 10.5t90 23.5t71 32l24 239q6 55 -1 106.5t-32.5 92.5t-77.5 65.5t-134 24.5z" />
<glyph unicode=":" horiz-adv-x="401" d="M111 104q4 43 36.5 73t75.5 30q45 0 72 -30t22 -73q-4 -45 -36.5 -74.5t-77.5 -29.5q-43 0 -69.5 29.5t-22.5 74.5zM182 791q4 43 37 72.5t76 29.5q45 0 71.5 -29.5t22.5 -72.5q-6 -43 -39 -73t-78 -30q-43 0 -69.5 30t-20.5 73z" />
<glyph unicode=";" horiz-adv-x="376" d="M303 127q8 -37 -1 -78t-25.5 -83t-40 -83t-43.5 -78l-72 23q-20 8 -25.5 21.5t8.5 44.5q14 29 22.5 48t23.5 58q-29 14 -41.5 38.5t-10.5 55.5q6 43 39 73t76 30q37 0 60.5 -19.5t29.5 -50.5zM174 791q4 43 37 72.5t76 29.5q45 0 71.5 -29.5t22.5 -72.5q-6 -43 -39 -73 t-78 -30q-43 0 -69.5 30t-20.5 73z" />
<glyph unicode="&#x3c;" d="M100 440v166l983 443v-164l-802 -359l802 -362v-164z" />
<glyph unicode="=" horiz-adv-x="837" d="M178 297q-25 0 -40 14.5t-15 34.5v109h539q25 0 40 -14.5t15 -39.5v-104h-539zM178 569q-25 0 -40 14.5t-15 34.5v109h539q25 0 40 -14.5t15 -38.5v-105h-539z" />
<glyph unicode="&#x3e;" d="M100 0v164l803 362l-803 359v164l983 -443v-166z" />
<glyph unicode="?" horiz-adv-x="890" d="M412 104q4 43 -23 73t-70 30t-75.5 -30t-36.5 -73q-4 -45 22.5 -74.5t69.5 -29.5t76 29.5t37 74.5zM285 625q2 25 17 41t38 16h139q135 0 194.5 48t71.5 153q12 125 -32.5 178t-145.5 53q-102 0 -176 -16q-35 -6 -49 2t-18 30q-4 10 -21 99q39 14 88 24q41 10 94.5 17.5 t112.5 7.5q72 0 131 -26.5t99 -78t58.5 -124t8.5 -166.5q-10 -86 -39 -155t-82 -115t-137 -64.5t-203 -18.5l-24 -229h-109q-23 0 -35 16.5t-10 40.5z" />
<glyph unicode="@" horiz-adv-x="1931" d="M1878 684q-16 -158 -64.5 -284t-116 -215t-150.5 -137t-171 -48q-61 0 -85.5 25.5t-39.5 50.5q-43 -29 -131 -52.5t-211 -23.5q-115 0 -190.5 31.5t-119.5 87t-59.5 129.5t-7.5 158q10 102 51.5 205.5t115 187.5t179 137t246.5 53q61 0 117.5 -9t105 -21.5t85 -25.5 t61.5 -22l-152 -716v-9q-4 -29 18.5 -52t53.5 -23q55 0 110.5 45t103.5 121.5t82 181t46 223.5q14 139 -21.5 255t-113.5 200t-191.5 130t-252.5 46q-182 0 -336 -66.5t-268.5 -181.5t-186.5 -268.5t-90 -327.5q-20 -190 16.5 -343t122.5 -258.5t219 -162.5t305 -57 q80 0 172.5 12t180.5 33.5t164.5 50.5t128.5 59l-13 -129q-41 -23 -108.5 -46t-152.5 -41.5t-183 -31t-199 -12.5q-231 0 -388 77t-249 206t-123.5 296t-13.5 347q20 207 105.5 381t219.5 300t309 196.5t378 70.5q188 0 325.5 -59.5t224.5 -160.5t121.5 -234.5t20.5 -278.5z M1337 834q-27 10 -87 28.5t-132 18.5q-98 0 -175 -46.5t-132 -116t-88 -152.5t-41 -158q-12 -129 54.5 -213t213.5 -84q29 0 66 3t71.5 9t64.5 15t46 20z" />
<glyph unicode="A" horiz-adv-x="1288" d="M1223 45q4 -16 -3.5 -30.5t-35.5 -14.5h-125l-90 348h-572l-159 -348h-132q-29 0 -30.5 14.5t6.5 30.5l602 1249q14 31 25.5 49.5t34 32t49.5 13.5t44 -13.5t28.5 -32t17.5 -49.5zM928 504l-160 655l-299 -655h459z" />
<glyph unicode="B" horiz-adv-x="1198" d="M889 721q70 -20 117 -56t72.5 -80t33.5 -94.5t4 -99.5q-6 -59 -28.5 -127.5t-72.5 -127t-132 -97.5t-209 -39h-410q-68 0 -107.5 35t-31.5 121l121 1142q51 25 151.5 58t249.5 33q98 0 181 -23t139.5 -69t83 -116.5t18.5 -164.5q-4 -31 -16.5 -69t-33 -78t-52 -78.5 t-78.5 -69.5zM346 780h254q76 0 131 19.5t92 52.5t57.5 75t26.5 87q10 104 -50 168.5t-210 64.5q-55 0 -101 -6t-81 -12l-74 -17zM670 154q86 0 139 22.5t83 57t42 74.5t16 77q6 45 -6 88t-44 77t-84 54.5t-130 20.5h-356l-51 -471h391z" />
<glyph unicode="C" horiz-adv-x="1159" d="M803 1231q-104 0 -183 -41t-134.5 -108.5t-88 -164t-47.5 -217.5q-29 -274 62.5 -418.5t320.5 -144.5q70 0 118 7.5t84 17.5t63.5 21.5t58.5 17.5q43 10 39 -35l-13 -109q-39 -23 -94 -39q-47 -14 -118.5 -25t-176.5 -11q-168 0 -271.5 54t-161.5 151.5t-71.5 224.5 t3.5 272q14 141 54 268t118.5 224.5t192.5 151.5t282 54q98 0 168.5 -11t121 -25.5t87.5 -32.5l-15 -125q-4 -39 -41 -27q-45 16 -126.5 43t-231.5 27z" />
<glyph unicode="D" horiz-adv-x="1267" d="M707 1364q180 0 289.5 -49t165 -138.5t65.5 -215t-4 -277.5q-20 -180 -64.5 -310t-123.5 -213t-193.5 -122t-276.5 -39h-295q-47 0 -75.5 13.5t-43 36t-17.5 49t-1 55.5l113 1060q4 45 19.5 75t39 46.5t51 22.5t56.5 6h295zM588 154q131 0 216 39.5t138 110.5t79 168 t38 212q10 113 5 210t-42 168t-114 111.5t-208 40.5h-303l-112 -1060h303z" />
<glyph unicode="E" horiz-adv-x="1054" d="M377 1214l-45 -419h520l-10 -103q-6 -51 -58 -51h-469l-51 -487h723l-10 -99q-4 -55 -62 -55h-639q-82 0 -128 41t-39 113l108 1030q8 72 31.5 108.5t55.5 53t68 17.5t66 1h676l-10 -109q-4 -41 -49 -41h-678z" />
<glyph unicode="F" horiz-adv-x="1034" d="M385 1214l-45 -419h498l-13 -115q-2 -27 -15 -33t-36 -6h-450l-62 -596q-4 -27 -16.5 -36t-34.5 -9h-111l119 1143q10 96 35 139t68 62.5t155 19.5h627l-10 -104q-2 -23 -11.5 -34.5t-38.5 -11.5h-659z" />
<glyph unicode="G" horiz-adv-x="1253" d="M1118 758q43 0 66.5 -17.5t17.5 -76.5l-63 -605q-51 -23 -116 -39t-152 -27t-205 -11q-55 0 -118 10t-123 37.5t-112.5 77t-87.5 128t-50 188t1 261.5q14 150 53 260.5t91.5 188t116 126t128 76t129 37.5t119.5 10q104 0 183 -12t136.5 -28.5t96.5 -36.5l-10 -113 q-2 -20 -13.5 -29.5t-44.5 6.5q-16 8 -54 20.5t-88 23t-107.5 18.5t-112.5 8q-119 0 -203 -45t-138.5 -122t-85 -177t-40.5 -211q-29 -268 69.5 -406.5t335.5 -138.5q82 0 144.5 7.5t117.5 29.5l45 430h-266q-31 0 -38 14.5t-5 36.5l10 101h373v0z" />
<glyph unicode="H" horiz-adv-x="1183" d="M1247 1364l-137 -1319q-2 -18 -11 -31.5t-38 -13.5h-113l66 641h-684l-62 -596q-4 -27 -16 -36t-31 -9h-110l137 1311q2 23 11 38t38 15h109l-60 -569h684l55 526q2 20 13.5 31.5t29.5 11.5h119z" />
<glyph unicode="I" horiz-adv-x="430" d="M309 0h-162l138 1321q4 27 15 35t30 8h121z" />
<glyph unicode="J" horiz-adv-x="628" d="M676 1364l-115 -1104q-14 -125 -87 -184.5t-142.5 -76.5t-161.5 -17q-33 0 -72 3t-80 13l13 115q2 23 14 31t29 6q27 -4 58.5 -5.5t53.5 -1.5q96 0 151.5 22.5t63.5 104.5l111 1051q2 23 15.5 33t33.5 10h115z" />
<glyph unicode="K" horiz-adv-x="1159" d="M311 0h-155l137 1321q4 25 15 34t32 9h113zM942 0l-508 586q-27 27 -40 48t-9 56q4 33 22.5 58.5t53.5 60.5l543 555h120q27 0 30 -14.5t-13 -34.5l-590 -625q551 -643 553 -645q14 -16 11 -30.5t-36 -14.5h-137z" />
<glyph unicode="L" horiz-adv-x="1009" d="M965 154l-11 -109q-2 -16 -10 -30.5t-37 -14.5h-491q-82 0 -137.5 22.5t-88 61.5t-45 93t-4.5 120l107 1024q4 43 43 43h117l-107 -1024q-10 -102 29 -144t129 -42h506z" />
<glyph unicode="M" horiz-adv-x="1615" d="M1432 1311q23 33 60.5 46t71 5t57.5 -38t17 -83l-125 -1196q-2 -23 -11 -34t-38 -11h-106l117 1122l-504 -624q-47 -55 -105.5 -55.5t-93.5 55.5l-373 624l-112 -1081q-2 -12 -8.5 -26.5t-40.5 -14.5h-107l129 1239q6 55 35 86t65.5 38t69.5 -6.5t51 -45.5l402 -699 l549 699v0z" />
<glyph unicode="N" horiz-adv-x="1310" d="M1339 1364l-129 -1233q-6 -55 -32.5 -87t-60.5 -40t-69.5 8.5t-58.5 57.5l-567 1040l-111 -1053q-4 -41 -20.5 -49t-32.5 -8h-106l129 1243q6 47 31.5 78t60.5 40t69.5 -6.5t59.5 -58.5l569 -1050l113 1075q2 18 12 30.5t27 12.5h116z" />
<glyph unicode="O" horiz-adv-x="1318" d="M795 1384q184 0 288.5 -60t153.5 -160.5t54 -224.5t-7 -255q-14 -135 -46 -259t-101.5 -224.5t-187.5 -159.5t-302 -59t-288.5 59t-154.5 159.5t-55.5 224.5t9.5 259q12 131 43.5 255t102.5 224.5t190 160.5t301 60zM780 1247q-133 0 -214 -43t-131 -118.5t-75.5 -178 t-37.5 -223.5q-14 -123 -9.5 -226.5t38.5 -179t104.5 -118.5t203.5 -43q131 0 214 43t133.5 118.5t74 179t37.5 226.5q12 121 9 223.5t-36.5 178t-106.5 118.5t-204 43z" />
<glyph unicode="P" horiz-adv-x="1198" d="M737 1389q123 0 213 -34t147.5 -95.5t80 -148.5t12.5 -193q-12 -104 -46 -204t-96.5 -168.5t-164 -114.5t-254.5 -46q-59 0 -124 8t-109 21.5t-68 23.5l-45 -438h-156l133 1268q61 33 131 57.5t157 44t189 19.5zM664 541q127 2 194.5 44t106.5 99t51 121.5t18 112.5 q6 59 -3 116.5t-43 102.5t-94 72.5t-155 27.5q-88 0 -149.5 -10t-106.5 -23.5t-77 -29.5l-60 -570q25 -16 68 -30.5t107.5 -23.5t142.5 -9z" />
<glyph unicode="Q" horiz-adv-x="1347" d="M825 1382q180 0 288 -54t157 -150.5t55 -222.5t-8 -271q-12 -119 -38 -225.5t-72 -192.5t-114.5 -148.5t-160.5 -92.5l266 -48l-10 -106q-2 -16 -13.5 -27.5t-41.5 -5.5q-8 0 -40 8.5t-78 19.5t-101.5 25.5t-112.5 30.5q-137 37 -303 80q-121 31 -188.5 98.5t-98.5 158.5 t-31 200.5t13 224.5q14 145 47.5 271t103.5 222.5t185.5 150.5t295.5 54zM813 1247q-131 0 -213 -43t-132 -117.5t-73.5 -178t-36.5 -224.5q-14 -121 -11 -224.5t37 -179t106.5 -117.5t203.5 -42q133 0 214 42t130 117.5t74 179t39 224.5q12 121 8 224.5t-36.5 178 t-104.5 117.5t-205 43z" />
<glyph unicode="R" horiz-adv-x="1226" d="M1174 45q12 -25 -0.5 -35t-30.5 -10h-146l-333 543h-330l-55 -543h-154l133 1284q66 29 134.5 50.5t152.5 38t174 16.5q248 0 362.5 -110t89.5 -325q-12 -135 -92 -236.5t-231 -150.5q322 -518 326 -522zM696 686q49 0 101.5 15.5t98.5 50t79 90t41 137.5q8 80 -13.5 132 t-68.5 82t-115.5 42t-156.5 12q-53 0 -99.5 -7t-82.5 -17.5t-77 -24.5l-53 -512h346z" />
<glyph unicode="S" horiz-adv-x="1179" d="M1153 1198q-2 -18 -15.5 -26.5t-31.5 -2.5q-33 6 -70 16.5t-86 22t-108.5 20.5t-122.5 9q-106 0 -172 -16.5t-102.5 -46t-51 -71.5t-20.5 -93q-8 -78 19.5 -120t74.5 -62.5t104.5 -27.5t98.5 -11.5t89 -9.5t101 -18t106.5 -37t94.5 -66t63.5 -105.5t12.5 -153.5 q-8 -86 -40 -161.5t-97.5 -132t-169 -89t-257.5 -32.5q-51 0 -113.5 6t-121.5 16t-111.5 22.5t-93.5 28.5l12 113q2 20 15.5 28.5t32.5 2.5q16 -6 51 -17.5t84 -22.5t110.5 -18.5t128.5 -7.5q205 0 300.5 63.5t107.5 190.5q10 92 -34 142.5t-107.5 74t-133 29.5t-124 12 t-125 22.5t-126 54.5t-89 103.5t-21.5 171.5q12 115 58 190t115 118t157 59t184 16q98 0 178 -12t141.5 -29.5t114.5 -40.5z" />
<glyph unicode="T" horiz-adv-x="1079" d="M1167 1364l-10 -102q-2 -27 -16.5 -38.5t-38.5 -11.5h-359l-127 -1212h-157l127 1212h-408l10 111q2 18 16.5 29.5t39.5 11.5h923z" />
<glyph unicode="U" horiz-adv-x="1280" d="M1309 1364l-131 -1249q-59 -37 -130 -63.5t-166.5 -47t-174 -20.5t-123.5 3t-93.5 12t-96.5 23.5t-106.5 50.5t-107.5 125t-33 236l93 879q2 29 16 40t41 11h104l-94 -911q-10 -88 12.5 -144.5t64.5 -91.5t95 -50t103.5 -20.5t131.5 -4.5t135 10.5t99 22.5t84 30 l117 1102q2 35 13.5 46t37.5 11h109z" />
<glyph unicode="V" horiz-adv-x="1234" d="M1282 1364q25 0 35 -15.5t-4 -52.5l-570 -1181q-29 -59 -56.5 -93t-74.5 -34t-67.5 33.5t-36.5 93.5l-322 1190q-6 25 5.5 42t48.5 17h92l305 -1131l547 1131h98v0z" />
<glyph unicode="W" horiz-adv-x="1751" d="M1796 1364q23 0 32 -11.5t-5 -52.5l-400 -1185q-20 -57 -48.5 -92t-88.5 -35q-41 0 -69.5 34.5t-42.5 92.5l-222 741l-348 -741q-27 -57 -56.5 -92t-78.5 -35q-51 0 -77.5 34.5t-33.5 92.5l-149 1185q-4 25 6 44.5t47 19.5h94l146 -1143l473 1008h98q18 0 29.5 -12.5 t5.5 -32.5l-59 -127l249 -854l390 1161h108v0z" />
<glyph unicode="X" horiz-adv-x="1222" d="M766 866l362 498h140q29 0 29.5 -14.5t-7.5 -26.5l-456 -639l329 -629q18 -31 10 -43t-32 -12h-146l-254 496q-18 37 -38.5 74.5t-28.5 76.5q-16 -41 -43 -79t-53 -72l-349 -496h-147q-25 0 -31 13.5t17 41.5l458 629l-323 639q-6 12 -2 26.5t30 14.5h142l252 -496 q4 -12 25.5 -49t33.5 -74q18 39 45 74t37 47z" />
<glyph unicode="Y" horiz-adv-x="1298" d="M1354 1364q18 0 26.5 -13.5t-2.5 -33.5q-430 -547 -594 -754l-53 -516q-2 -18 -9 -32.5t-36 -14.5h-113l58 563l-432 754q-6 18 4 32.5t28 14.5h117l379 -639l506 639h121v0z" />
<glyph unicode="Z" horiz-adv-x="1187" d="M1130 154l-10 -107q-2 -16 -10 -31.5t-39 -15.5h-872q-39 0 -77 29.5t-34 84t35 85.5l907 1013h-751q-35 0 -48.5 14.5t-11.5 35.5l10 102h879q63 0 96 -28.5t35 -78t-55 -108.5l-887 -995h833z" />
<glyph unicode="[" horiz-adv-x="602" d="M162 0l145 1393h355l-11 -107h-202l-125 -1180h202l-10 -106h-354z" />
<glyph unicode="\" horiz-adv-x="743" d="M551 -125q-520 1409 -524 1417q-10 37 2 52.5t37 15.5h127q520 -1409 522 -1417q12 -37 -0.5 -52.5t-36.5 -15.5h-127z" />
<glyph unicode="]" horiz-adv-x="602" d="M88 0l10 106h203l125 1180h-203l10 107h355l-146 -1393h-354z" />
<glyph unicode="^" d="M770 788l-160 439l-153 -439h-133q-27 0 -30 11.5t5 34.5q23 57 50.5 125.5t53 131t45 110.5t25.5 65q8 18 18.5 40.5t27 42t39 33t52.5 13.5q59 0 90 -39t54 -90q12 -27 31.5 -77t44 -110.5t50 -125t48.5 -119.5q8 -23 -6.5 -34.5t-28.5 -11.5h-123z" />
<glyph unicode="_" horiz-adv-x="917" d="M180 -158q-25 0 -41 13.5t-16 38.5v106h606q25 0 40 -13.5t15 -37.5v-107h-604z" />
<glyph unicode="`" horiz-adv-x="350" d="M186 1081l-213 283h156l172 -283h-115z" />
<glyph unicode="a" horiz-adv-x="970" d="M543 909q111 0 215 -25.5t176 -62.5l-82 -768q-2 -27 -15.5 -40t-37.5 -13h-113l6 59q-70 -41 -131 -57t-115 -16q-94 0 -170.5 35.5t-116.5 99t-50.5 144.5t2.5 192q10 94 36.5 174t81 143.5t137.5 99t177 35.5zM764 739q-27 8 -49.5 16.5t-49 13.5t-59.5 8t-59 3 q-61 0 -120.5 -27.5t-91.5 -72.5t-46.5 -101.5t-20.5 -121.5q-8 -80 -5 -127t24.5 -92t67.5 -73t108 -28q80 0 131 14.5t113 49.5z" />
<glyph unicode="b" horiz-adv-x="1011" d="M340 1360q29 0 46 -15.5t13 -50.5l-47 -446q80 27 138.5 36t123.5 9q119 0 194 -36t105.5 -85t42 -79.5t18.5 -66.5t6 -80t-7 -100q-10 -96 -37 -179t-67 -130t-78.5 -72.5t-82.5 -43t-93.5 -26.5t-94.5 -9q-92 0 -168 14t-134 33.5t-105 46.5l133 1280h94zM279 154 q51 -20 109 -29.5t110 -9.5q86 0 152.5 28.5t98 74.5t46 104.5t20.5 123.5q10 98 -4 161t-45 98.5t-75 48t-89 12.5q-92 0 -150.5 -13.5t-113.5 -39.5z" />
<glyph unicode="c" horiz-adv-x="917" d="M768 154q47 10 51 -33l6 -88q-41 -14 -86 -24.5t-99 -16.5t-118 -6q-123 0 -201.5 35.5t-118.5 100t-50.5 139.5t0.5 169q10 98 36.5 181t81 147.5t141.5 100.5t205 36q72 0 150 -10.5t145 -36.5l-10 -94q-4 -39 -47 -33q-2 0 -25.5 7t-59.5 14.5t-81 11.5t-88 4 q-88 -2 -141 -34t-85 -78t-45.5 -98t-19.5 -118q-8 -63 -4 -109.5t25.5 -92.5t68.5 -73.5t136 -27.5q43 0 82.5 4t73.5 9t54.5 9.5t22.5 4.5z" />
<glyph unicode="d" horiz-adv-x="1030" d="M993 1360q37 0 49.5 -14.5t8.5 -51.5l-127 -1214q-53 -27 -115 -47q-53 -18 -124 -32.5t-157 -14.5q-119 0 -210 34.5t-131 99t-49 149.5t1 182q4 47 22.5 122.5t66.5 146.5t134.5 122t227.5 51q66 0 131 -10.5t123 -32.5l53 510h96zM829 713q-25 12 -48 22t-51 17.5 t-61.5 10.5t-78.5 3q-43 0 -90 -13.5t-89 -47t-73 -95t-41 -159.5q-8 -72 -3 -133.5t30.5 -106.5t79 -70.5t143.5 -25.5t142 14t81 25z" />
<glyph unicode="e" horiz-adv-x="946" d="M920 598q-6 -72 -33 -120t-71 -78.5t-100.5 -44t-121.5 -13.5h-315q-2 -119 72.5 -167t183.5 -48q45 0 77.5 4t58 9t44 10.5t37.5 11.5q18 6 34.5 1t12.5 -30l-8 -92q-39 -16 -80 -27.5t-92.5 -19.5t-104.5 -8q-59 0 -133 15t-135.5 60t-99 128t-21.5 221 q16 166 73.5 264t129 150.5t145.5 68.5t125 16q53 0 112.5 -16t109.5 -53t80 -96.5t20 -145.5zM543 485q121 0 171 22.5t56 90.5q10 88 -41 136t-143 48q-74 0 -127 -26.5t-88 -69.5t-54.5 -96t-25.5 -105h252z" />
<glyph unicode="f" horiz-adv-x="729" d="M180 748l10 94q2 27 16.5 39t41.5 12h37l24 223q6 70 39 117t82 75.5t106.5 40t116.5 11.5q61 0 116.5 -9.5t90.5 -19.5q-8 -29 -16 -58.5t-17 -45.5q-6 -18 -17 -25.5t-42 0.5q-39 6 -89 9t-96 -7t-79 -40.5t-39 -90.5l-21 -180h271l-10 -96q-2 -29 -13.5 -39t-36.5 -10 h-225q-76 -709 -81 -761.5t-9 -84.5q-8 -70 -30.5 -119t-55.5 -83t-72 -52.5t-78 -24.5q-20 27 -31.5 45.5t-17.5 28.5q-8 14 -10 25.5t1 23.5t20 23q16 8 33.5 16t32.5 22.5t28.5 39t21.5 67.5q2 12 7.5 55t80.5 779h-90z" />
<glyph unicode="g" horiz-adv-x="1019" d="M606 909q82 0 151.5 -16t126 -37.5t107.5 -52.5l-86 -811q-23 -217 -142.5 -315.5t-338.5 -98.5q-41 0 -89 5t-85 15.5t-53.5 20.5t-3.5 45l34 103q25 -8 55.5 -15.5t70.5 -11.5t89 -4q92 0 149.5 18.5t89.5 51t45 74.5t17 89l9 74q-39 -14 -95.5 -27.5t-142.5 -13.5 q-68 0 -143.5 15.5t-135 63.5t-93 136t-17.5 236q2 31 13.5 78t33 97t57 100t89 91t124 65.5t164.5 24.5zM823 737q-45 16 -90 26.5t-112 10.5q-152 0 -230 -73.5t-96 -245.5q-8 -72 -1 -129.5t34.5 -99.5t80 -64.5t132.5 -22.5q86 0 140 13.5t85 23.5z" />
<glyph unicode="h" horiz-adv-x="991" d="M639 893q180 0 254 -75t59 -214l-59 -557q-2 -25 -13.5 -36t-31.5 -11h-121l64 608q16 158 -164 158q-147 0 -260 -51l-70 -668q-2 -25 -12.5 -36t-30.5 -11h-123l141 1360h107q55 0 51 -53l-51 -476q63 31 130 46.5t130 15.5z" />
<glyph unicode="i" horiz-adv-x="475" d="M428 1124q-4 -47 -37 -74.5t-76 -27.5q-41 0 -68.5 27.5t-23.5 74.5q6 47 39 74t74 27q43 0 70.5 -27t21.5 -74zM393 154q18 0 25.5 -10.5t5.5 -28.5l-10 -115h-123q-27 0 -54.5 9t-48 33t-32 61.5t-4.5 95.5l71 694h115q25 0 35 -7t6 -36l-68 -645q-2 -23 6.5 -33 t20.5 -14t27.5 -4h27.5z" />
<glyph unicode="j" horiz-adv-x="573" d="M565 1124q-4 -47 -36.5 -74.5t-75.5 -27.5q-41 0 -69 27.5t-24 74.5q6 47 39 74t74 27q43 0 70.5 -27t21.5 -74zM365 893h110q29 0 39 -10.5t8 -34.5l-104 -987q-6 -68 -32 -127.5t-71 -102.5t-107.5 -68.5t-144.5 -25.5q-41 0 -81.5 6t-79.5 16.5t-47.5 22.5t2.5 47 l34 95q31 -10 65 -18.5t101 -8.5q63 0 101.5 19.5t60 52t31.5 77.5t16 97z" />
<glyph unicode="k" horiz-adv-x="964" d="M268 0h-155l141 1360h104q18 0 34 -13.5t11 -48.5zM485 483q326 -346 355.5 -377.5t48 -51t20.5 -21.5q12 -12 6 -22.5t-24 -10.5h-143l-361 373q-23 25 -46.5 51.5t-21.5 60.5q6 41 35 67t68 58l340 283h131q20 0 25.5 -11.5t-13.5 -27.5q-4 -6 -420 -371z" />
<glyph unicode="l" horiz-adv-x="561" d="M494 47q4 -35 -27 -45q-27 -8 -63.5 -12t-75.5 -4q-66 0 -105 18.5t-58.5 52t-23.5 81.5t2 106l117 1116h107q29 0 39 -18.5t8 -47.5l-113 -1077q-6 -47 13.5 -68.5t76.5 -21.5q39 0 58.5 4t33.5 8l11 -92v0z" />
<glyph unicode="m" horiz-adv-x="1585" d="M199 788q59 29 125.5 50.5t143.5 38t163 16.5q94 0 161.5 -22.5t104.5 -69.5q78 43 168 67.5t162 24.5q164 0 220 -51t71.5 -113.5t7.5 -128.5l-58 -553q-2 -16 -7 -25.5t-15 -15.5t-31 -6h-110l61 598q8 78 -31 122t-121 46q-86 0 -154.5 -19.5t-125.5 -44.5 q2 -18 1 -51t-3 -53l-58 -553q-2 -14 -7 -23.5t-14 -15.5t-26 -6h-114l63 608q10 154 -158 158q-80 0 -145 -12.5t-123 -34.5l-69 -670q-2 -14 -6.5 -24.5t-13.5 -17.5t-28 -7h-116l82 788v0z" />
<glyph unicode="n" horiz-adv-x="1007" d="M186 788q53 29 119 50.5t145.5 38t180.5 16.5q109 0 161 -15.5t79.5 -43t41 -56t20.5 -58.5t8 -67t-3 -75l-55 -531q-2 -20 -12.5 -33.5t-30.5 -13.5h-119l61 594q6 57 -8 91t-40.5 52.5t-64.5 23.5t-83 5q-57 0 -129 -15.5t-115 -31.5l-70 -672q-2 -20 -14 -33.5 t-39 -13.5h-115l82 788v0z" />
<glyph unicode="o" horiz-adv-x="1007" d="M582 909q223 0 308 -117.5t62 -342.5q-12 -109 -42.5 -193t-86 -142.5t-138.5 -90t-200 -35.5q-223 0 -308 117.5t-60 343.5q10 104 40.5 189t86 145.5t138.5 93t200 32.5zM498 115q80 2 134 24.5t87 64.5t49 103.5t27 141.5q6 70 4 131t-24.5 105t-71 69.5t-134.5 25.5 q-78 0 -130 -20.5t-86 -61.5t-51 -103.5t-26 -145.5q-8 -76 -7 -136.5t23.5 -103.5t72 -66.5t133.5 -27.5z" />
<glyph unicode="p" horiz-adv-x="1083" d="M203 811q55 23 120.5 40t147.5 29.5t182 12.5q119 0 196 -35t117 -98.5t50 -145.5t0 -176q-10 -92 -36 -174t-81 -145.5t-138 -98t-202 -34.5q-63 0 -140 13t-136 46l-45 -418q-2 -31 -22.5 -43t-49.5 -12h-92zM297 184q53 -23 118.5 -47t159.5 -22q82 -2 137.5 33.5 t84 84t42 96.5t19.5 109q6 63 4 121.5t-23.5 104t-66.5 73t-131 27.5q-174 0 -289 -51z" />
<glyph unicode="q" horiz-adv-x="1044" d="M606 893q129 0 233.5 -25.5t176.5 -62.5l-125 -1178q-2 -27 -15.5 -40t-37.5 -13h-113l49 473q-63 -33 -131 -47t-131 -14q-119 0 -195.5 35.5t-116.5 99t-50.5 144.5t0.5 175q10 94 36.5 174t81 143.5t137 99.5t201.5 36zM846 723q-27 8 -49.5 16.5t-49 13.5t-59.5 8 t-78 3q-86 0 -145 -27.5t-91 -73t-46.5 -101.5t-20.5 -122q-6 -63 -3 -110t24.5 -92t67.5 -73t132 -28q90 0 147.5 12.5t112.5 38.5z" />
<glyph unicode="r" horiz-adv-x="833" d="M188 631q4 43 32 89t77 84t120.5 63.5t166.5 25.5q55 0 106 -5t88 -14.5t56.5 -17.5t21.5 -28.5t-12 -51.5q-16 -39 -29 -69q-25 6 -56.5 12t-76.5 12t-102 6q-66 0 -109 -14t-69.5 -34.5t-39 -44t-14.5 -44.5l-57 -553q-2 -25 -16.5 -36t-43.5 -11h-108z" />
<glyph unicode="s" horiz-adv-x="927" d="M846 768q-6 -18 -19.5 -30.5t-40.5 -2.5t-86 19.5t-145 9.5q-74 0 -117 -10.5t-65.5 -27.5t-28.5 -38.5t-8 -42.5q-6 -59 43 -77.5t151.5 -27t168 -26.5t102.5 -52t46 -90.5t3 -109.5t-31.5 -102t-77 -88t-129 -62.5t-192.5 -23.5q-66 0 -119 6t-96 16t-80 25l10 102 q2 12 7 20.5t12.5 12.5t23.5 0q41 -10 104.5 -21.5t155.5 -11.5q74 0 122 9.5t77 25.5t41 38.5t16 51.5q2 29 0 51.5t-22.5 39t-60.5 27.5t-128 19.5t-153.5 28.5t-101 51t-46 72t-4.5 86q4 47 27.5 95t72 87t123 61.5t179.5 22.5q68 0 121 -7t94 -17.5t73 -22.5z" />
<glyph unicode="t" horiz-adv-x="694" d="M377 737l-49 -479q-6 -74 25.5 -100.5t123.5 -26.5q29 0 69 6t52 8q16 4 23.5 -3t5.5 -29l-11 -95q-12 -10 -65 -21t-131 -11q-47 0 -95.5 13t-85 44t-58 80t-13.5 121l94 905l125 31q10 4 17.5 2t12.5 -10.5t3 -28.5l-27 -250h277l-11 -107q-4 -27 -15 -38t-32 -11h-235 z" />
<glyph unicode="u" horiz-adv-x="978" d="M473 -14q-104 0 -172 30.5t-104.5 78.5t-49 106.5t-6.5 115.5l56 529q2 25 12 36t31 11h120l-59 -580q-10 -80 42 -128t146 -48q90 0 144.5 12.5t107.5 38.5l70 658q2 25 15.5 36t31.5 11h117l-84 -803q-47 -31 -107.5 -52.5t-136.5 -36.5t-174 -15z" />
<glyph unicode="v" horiz-adv-x="937" d="M946 893q16 0 23.5 -11.5t-2.5 -33.5l-363 -733q-27 -51 -61.5 -90t-93.5 -39q-57 0 -83 38.5t-42 90.5l-209 733q-6 23 3 34t29 11h109l209 -739l362 739h119v0z" />
<glyph unicode="w" horiz-adv-x="1488" d="M1509 893q10 0 17.5 -8t-0.5 -29l-367 -741q-25 -49 -50.5 -79t-49 -40t-55.5 -10q-31 0 -52.5 13t-38 38.5t-34.5 77.5l-86 307l-140 -307q-27 -51 -47 -77t-47 -39t-59 -13q-31 0 -52.5 13t-39 38.5t-35.5 77.5l-209 733q-6 23 -2 34t33 11h116l207 -739l344 739h121 q10 0 18.5 -9.5t-2.5 -29.5l-106 -229l131 -471l354 739h131v0z" />
<glyph unicode="x" horiz-adv-x="991" d="M926 53q14 -20 6 -36.5t-37 -16.5h-121l-233 342l-305 -342h-117q-31 0 -38 18.5t9 34.5l365 412l-260 381q-12 18 -8.5 32.5t22.5 14.5h141l211 -318l281 318h131q27 0 31 -11.5t-9 -27.5l-346 -391l277 -410v0z" />
<glyph unicode="y" horiz-adv-x="1083" d="M1081 893q20 0 25.5 -8t-2.5 -31q-8 -16 -48 -100t-163 -336t-178 -371q-63 -137 -117.5 -234.5t-112 -159t-127 -90t-165.5 -28.5q-53 0 -101 10q-27 8 -33 20.5t0 35.5l35 104q20 -4 54 -10t71 -6q43 0 76 14t59.5 36.5t47 47.5t45 60.5t81.5 152.5h-45q-25 0 -39 27 q-10 35 -34.5 108.5t-54 163.5t-61.5 187.5t-57.5 177t-44 133t-20.5 57.5q-4 14 0 26.5t31 12.5h131l244 -778l354 778h149v0z" />
<glyph unicode="z" horiz-adv-x="966" d="M911 154l-10 -107q-2 -27 -9 -37t-36 -10h-682q-25 0 -39 13.5t-12 33.5l8 76l606 620h-479q-23 0 -34 8.5t-9 36.5l10 105h686q31 0 42.5 -12.5t9.5 -32.5l-11 -94l-592 -600h551z" />
<glyph unicode="{" horiz-adv-x="696" d="M500 0q-111 0 -171.5 54.5t-47.5 168.5l20 195q12 117 -11.5 182.5t-109.5 69.5l10 108q88 4 126 76t51 188l14 129q12 117 85 169.5t179 52.5h111l-11 -107h-53q-84 0 -119.5 -45t-44.5 -115l-14 -151q-10 -92 -53 -157.5t-139 -90.5q94 -25 121.5 -87t17.5 -157 l-23 -215q-6 -70 25 -116t104 -46h54l-11 -106h-110z" />
<glyph unicode="|" horiz-adv-x="608" d="M240 0v1393h131v-1393h-131z" />
<glyph unicode="}" horiz-adv-x="700" d="M657 670q-88 -4 -123.5 -69.5t-48.5 -182.5l-20 -195q-12 -119 -86 -171t-178 -52h-113l10 106h56q76 0 115.5 47.5t45.5 114.5l23 215q10 100 53 159.5t139 84.5q-92 25 -120.5 90.5t-18.5 157.5l15 151q8 70 -18 115t-109 45h-56l10 107h113q106 0 169 -52.5t50 -169.5 l-14 -129q-12 -119 10.5 -189.5t106.5 -74.5l-11 -108v0z" />
<glyph unicode="~" d="M1083 645q-10 -127 -75.5 -190.5t-153.5 -63.5q-61 0 -124.5 18.5t-125 42t-121 42t-110.5 18.5q-49 0 -77 -33t-38 -78h-123q10 127 74.5 191.5t155.5 64.5q61 0 124.5 -18t125 -42t120 -42t111.5 -18q47 0 75.5 31.5t39.5 76.5h122v0z" />
<glyph unicode="&#xa3;" horiz-adv-x="1001" d="M137 659q-25 -2 -41 13.5t-16 36.5v82h145q-14 55 -23 113.5t-9 123.5q0 123 28.5 199t76.5 117.5t112.5 56t136.5 14.5q78 0 140.5 -10t103.5 -21q49 -14 83 -30v-74q0 -27 -9 -39t-50 -6q-18 4 -38.5 12t-49.5 16.5t-71 14.5t-105 6t-104 -16.5t-66 -50t-34 -85 t-9 -118.5q0 -53 12 -108.5t29 -114.5h317q25 0 40.5 -14.5t15.5 -39.5v-78h-340q14 -61 19 -126.5t-7 -131t-46 -134t-97 -136.5h612q25 0 40 -13.5t15 -37.5v-80h-817q-25 -2 -41 13.5t-16 35.5v82q92 68 138 133.5t62.5 130t8 130t-24.5 134.5h-121z" />
<glyph unicode="&#xa9;" horiz-adv-x="1581" d="M995 432q-2 0 -20.5 -3t-47 -7t-63.5 -8t-71 -4q-76 0 -119 23.5t-66.5 63.5t-30 80.5t-6.5 94.5q0 59 6.5 104t30 84t66.5 67.5t119 30.5q37 0 76.5 -3t71.5 -11t53.5 -13t23.5 -5q37 -6 37 28v82q-59 25 -128 33t-132 8q-102 0 -175 -30.5t-114 -88t-57.5 -129 t-16.5 -157.5q0 -82 16.5 -145.5t57.5 -121t110.5 -88t178.5 -30.5q55 0 102 5t85 13t73 23l-13 75q-10 39 -47 29zM109 682q0 141 54 265t146 216t216 146.5t266 54.5q141 0 265 -54.5t216 -146.5t146.5 -216t54.5 -265t-54.5 -265t-146.5 -216t-216 -146.5t-265 -54.5 t-265.5 54.5t-216.5 146.5t-146 216t-54 265zM221 682q0 -117 45 -221.5t122 -181t181.5 -121.5t221.5 -45t221 45t181 121.5t122 181t45 221.5t-45 221.5t-122 181t-181.5 121.5t-220.5 45q-117 0 -221.5 -45t-181.5 -121.5t-122 -181t-45 -221.5z" />
<glyph unicode="&#xab;" horiz-adv-x="954" d="M657 344l-233 358l233 347h160l-244 -347l244 -358h-160zM313 344l-235 358l235 347h158l-244 -347l244 -358h-158z" />
<glyph unicode="&#xad;" horiz-adv-x="763" d="M139 434q-25 0 -41 14.5t-16 34.5v109h536q25 0 40.5 -14.5t15.5 -38.5v-105h-535z" />
<glyph unicode="&#xae;" horiz-adv-x="897" d="M109 1024q0 70 26.5 132.5t72.5 108.5t107.5 72.5t130.5 26.5q70 0 132.5 -26.5t108.5 -72.5t72.5 -108.5t26.5 -132.5t-26.5 -131.5t-72.5 -107.5t-108.5 -72.5t-132.5 -26.5t-131 26.5t-107 72.5t-72.5 107.5t-26.5 131.5zM164 1024q0 -59 22.5 -110.5t60.5 -89.5 t89 -60.5t110 -22.5t111.5 22.5t90.5 60.5t60.5 89.5t22.5 110.5t-22.5 111.5t-60.5 90.5t-90 60.5t-112 22.5q-59 0 -110 -22.5t-89 -60.5t-60.5 -90.5t-22.5 -111.5zM618 844q-2 0 -114 155q45 16 65.5 46t20.5 71q0 66 -38 98.5t-112 32.5q-29 0 -53.5 -5t-43.5 -11 t-38 -17v-385h45v164h101l116 -164h43q6 0 9 3.5t-1 11.5zM455 1036h-105v154q12 4 22.5 7t25 5t28.5 2q27 0 48.5 -4t36.5 -12t22.5 -24.5t7.5 -39.5q0 -25 -7.5 -42t-20.5 -27.5t-28.5 -14.5t-29.5 -4z" />
<glyph unicode="&#xb7;" horiz-adv-x="407" d="M139 614q45 0 84 -32q33 -33 39 -80q4 -49 -22 -80q-16 -16 -34 -24.5t-42 -8.5q-45 0 -84 33q-16 16 -27.5 36.5t-13.5 43.5q-4 25 3 44t21 36q33 32 76 32z" />
<glyph unicode="&#xbb;" horiz-adv-x="954" d="M641 344h-158l244 352l-244 353h158l233 -353zM297 344h-160l244 352l-244 353h160l233 -353z" />
<glyph unicode="&#xd7;" horiz-adv-x="808" d="M532 707q37 37 74 2l76 -74l-154 -156l113 -112q20 -18 20.5 -40t-16.5 -38l-74 -76l-155 156l-113 -113q-16 -18 -38.5 -19t-37.5 15l-75 74l151 153l-113 115q-18 16 -19 37.5t15 38.5l76 78l154 -156z" />
<glyph unicode="&#xf7;" horiz-adv-x="825" d="M166 434q-25 -2 -41 13.5t-16 35.5v109h536q25 0 40 -14.5t15 -38.5v-105h-534zM299 254q0 43 29.5 72.5t72.5 29.5t73 -29.5t30 -72.5t-30 -72.5t-73 -29.5t-72.5 29.5t-29.5 72.5zM508 772q0 -43 -29.5 -72.5t-72.5 -29.5t-73 29.5t-30 72.5t29.5 72.5t73.5 29.5 q43 0 72.5 -29.5t29.5 -72.5z" />
<glyph unicode="&#x2000;" horiz-adv-x="796" />
<glyph unicode="&#x2001;" horiz-adv-x="1593" />
<glyph unicode="&#x2002;" horiz-adv-x="796" />
<glyph unicode="&#x2003;" horiz-adv-x="1593" />
<glyph unicode="&#x2004;" horiz-adv-x="531" />
<glyph unicode="&#x2005;" horiz-adv-x="398" />
<glyph unicode="&#x2006;" horiz-adv-x="265" />
<glyph unicode="&#x2007;" horiz-adv-x="265" />
<glyph unicode="&#x2008;" horiz-adv-x="199" />
<glyph unicode="&#x2009;" horiz-adv-x="318" />
<glyph unicode="&#x200a;" horiz-adv-x="88" />
<glyph unicode="&#x2010;" horiz-adv-x="763" d="M139 434q-25 0 -41 14.5t-16 34.5v109h536q25 0 40.5 -14.5t15.5 -38.5v-105h-535z" />
<glyph unicode="&#x2011;" horiz-adv-x="763" d="M139 434q-25 0 -41 14.5t-16 34.5v109h536q25 0 40.5 -14.5t15.5 -38.5v-105h-535z" />
<glyph unicode="&#x2012;" horiz-adv-x="763" d="M139 434q-25 0 -41 14.5t-16 34.5v109h536q25 0 40.5 -14.5t15.5 -38.5v-105h-535z" />
<glyph unicode="&#x2013;" horiz-adv-x="888" d="M139 434q-25 0 -41 14.5t-16 34.5v109h659q25 0 40.5 -14.5t15.5 -38.5v-105h-658z" />
<glyph unicode="&#x2014;" horiz-adv-x="1603" d="M139 434q-25 0 -41 14.5t-16 34.5v109h1374q25 0 40 -14.5t15 -38.5v-105h-1372z" />
<glyph unicode="&#x2018;" horiz-adv-x="356" d="M274 907q-53 0 -83.5 37t-24.5 94q4 39 20.5 79t37 77t42 67.5t33.5 53.5l78 -27q39 -16 12 -65l-45 -84q31 -14 49.5 -43t14.5 -70q-4 -51 -43.5 -85t-90.5 -34z" />
<glyph unicode="&#x2019;" horiz-adv-x="356" d="M315 1315q53 0 84 -37t25 -94q-4 -39 -20.5 -79t-38 -77t-42 -68.5t-32.5 -52.5l-78 27q-39 16 -12 65l45 84q-31 14 -49.5 43t-14.5 70q6 51 44 85t89 34z" />
<glyph unicode="&#x201c;" horiz-adv-x="651" d="M567 907q-53 0 -83.5 37t-24.5 94q4 39 20.5 79t37 77t42 67.5t33.5 53.5l78 -27q39 -16 12 -65l-45 -84q31 -14 49.5 -43t13.5 -70q-4 -51 -43 -85t-90 -34zM274 907q-53 0 -83.5 37t-24.5 94q4 39 20.5 79t37 77t42 67.5t33.5 53.5l78 -27q39 -16 12 -65l-45 -84 q31 -14 49.5 -43t14.5 -70q-4 -51 -43.5 -85t-90.5 -34z" />
<glyph unicode="&#x201d;" horiz-adv-x="651" d="M315 1315q53 0 84 -37t25 -94q-4 -39 -20.5 -79t-38 -77t-42 -68.5t-32.5 -52.5l-78 27q-39 16 -12 65l45 84q-31 14 -49.5 43t-14.5 70q6 51 44 85t89 34zM608 1315q53 0 84 -37t25 -94q-4 -39 -20.5 -79t-38 -77t-42 -68.5t-32.5 -52.5l-78 27q-39 16 -12 65l45 84 q-31 14 -49.5 43t-14.5 70q6 51 44 85t89 34z" />
<glyph unicode="&#x2022;" horiz-adv-x="700" d="M127 627q0 45 17.5 86t48 71.5t70.5 48t87 17.5q45 0 86 -17.5t72 -48t48 -71.5t17 -86q0 -47 -17 -87t-48 -71t-72 -48.5t-86 -17.5q-47 0 -87 17.5t-70.5 48.5t-48 71t-17.5 87z" />
<glyph unicode="&#x2026;" horiz-adv-x="1087" d="M793 104q0 43 29.5 73t72.5 30t72.5 -30t29.5 -73q0 -45 -29.5 -74.5t-72.5 -29.5t-72.5 29.5t-29.5 74.5zM446 104q0 43 30 73t73 30t72.5 -30t29.5 -73q0 -45 -29.5 -74.5t-72.5 -29.5t-73 29.5t-30 74.5zM102 104q0 43 30 73t73 30t72.5 -30t29.5 -73 q0 -45 -29.5 -74.5t-72.5 -29.5t-73 29.5t-30 74.5z" />
<glyph unicode="&#x202f;" horiz-adv-x="318" />
<glyph unicode="&#x205f;" horiz-adv-x="398" />
<glyph unicode="&#x20ac;" horiz-adv-x="1144" d="M330 725v-25v-46t2 -44h444q25 0 40 -14t15 -39v-104h-479q18 -78 43 -136.5t64 -98.5t95 -60.5t138 -20.5q68 0 109 7.5t80 21.5t86 37q41 12 41 -37v-109q-25 -23 -70 -39q-39 -14 -102.5 -25t-163.5 -11q-80 0 -139.5 14t-104.5 40.5t-82 64.5t-72.5 90.5t-58 119 t-33.5 142.5h-69q-25 0 -41.5 14t-16.5 35v108h113v115h-80q-27 0 -42 14.5t-13 34.5v109h145q10 84 32.5 157.5t60.5 129t75 93t82 64.5t104.5 41t139.5 14q92 0 155.5 -10t107.5 -23.5t73 -31.5v-131q0 -39 -37 -27q-57 27 -101.5 38t-95.5 17.5t-125 6.5 q-80 0 -132 -22.5t-87 -67t-55.5 -106.5t-32.5 -142h479q25 0 40.5 -14.5t15.5 -39.5v-104h-547z" />
<glyph unicode="&#x2122;" horiz-adv-x="1398" d="M537 1364v-49q0 -14 -6.5 -20.5t-18.5 -6.5h-178v-602h-80v602h-203v58q0 8 7.5 13t17.5 5h461zM1208 1339q8 14 26.5 21.5t36 3.5t31 -18.5t13.5 -40.5v-596q0 -10 -4 -16.5t-19 -6.5h-53v559l-219 -311q-18 -27 -47 -27t-51 27l-217 311v-538q0 -6 -3.5 -13.5 t-19.5 -7.5h-53v617q0 29 12 43t30.5 18t36 -3t25.5 -22l238 -348z" />
<glyph unicode="&#x25fc;" horiz-adv-x="890" d="M0 891h891v-891h-891v891z" />
</font>
</defs>
</svg>
