<?xml version="1.0" standalone="no"?>
<!DOCTYPE svg PUBLIC "-//W3C//DTD SVG 1.1//EN" "http://www.w3.org/Graphics/SVG/1.1/DTD/svg11.dtd" >
<svg xmlns="http://www.w3.org/2000/svg" xmlns:xlink="http://www.w3.org/1999/xlink" version="1.1">
<metadata></metadata>
<defs>
<font id="stcbold" horiz-adv-x="1218" >
<font-face units-per-em="2048" ascent="1638" descent="-410" />
<missing-glyph horiz-adv-x="524" />
<glyph unicode="&#xd;" horiz-adv-x="524" />
<glyph horiz-adv-x="0" />
<glyph horiz-adv-x="0" />
<glyph unicode=" "  horiz-adv-x="524" />
<glyph unicode="&#x09;" horiz-adv-x="524" />
<glyph unicode="&#xa0;" horiz-adv-x="524" />
<glyph unicode="!" horiz-adv-x="448" d="M336 453q0 -92 -88 -93h-139v848q0 92 90 92h137v-847zM84 135q0 57 40 96t95 39t94 -38.5t39 -96.5q0 -59 -39 -97t-94 -38t-95 38t-40 97z" />
<glyph unicode="&#x22;" horiz-adv-x="624" d="M502 903q-2 -41 -25.5 -66.5t-58.5 -25.5h-84l-17 420q0 41 24 65.5t65 24.5h112zM258 903q-2 -41 -25.5 -66.5t-58.5 -25.5h-84l-16 420q0 41 23.5 65.5t64.5 24.5h112z" />
<glyph unicode="#" d="M637 0q-43 0 -69.5 25.5t-16.5 85.5l49 235h-176l-78 -346h-100q-41 0 -68.5 25.5t-17.5 85.5l51 235h-33q-92 0 -92 86v109h164l57 264h-33q-94 0 -94 86v110h168l78 347h102q41 0 69 -24t17 -83l-53 -240h178l78 347h103q41 0 67.5 -24t16.5 -83l-52 -240h33 q92 0 92 -90v-106h-162l-57 -264h33q92 0 92 -88v-107h-168l-78 -346h-100zM467 541h172l59 264h-176z" />
<glyph unicode="$" horiz-adv-x="1208" d="M463 1530h194v-270q57 -8 108.5 -19.5t93.5 -25t81 -29.5v-94q0 -106 -96 -78q-68 20 -143.5 36.5t-155.5 16.5q-74 0 -117 -10t-65.5 -28.5t-29.5 -45.5t-7 -59q0 -47 25.5 -75t64.5 -43t108.5 -21.5t151.5 -14.5t149.5 -45t117.5 -106.5t50 -186.5q0 -70 -16 -132 t-56 -111.5t-106.5 -82t-169.5 -45.5v-243h-194v239q-78 8 -168 27.5t-150 46.5v121q0 92 88 59q84 -27 164 -39t131 -12q141 0 200.5 41t59.5 123q0 51 -26.5 82t-64.5 48t-82 23.5t-102.5 13.5t-132 22.5t-130 52t-90 98t-33.5 154.5q0 92 26.5 155.5t73.5 103.5t110.5 60 t137.5 27v266z" />
<glyph unicode="%" horiz-adv-x="1163" d="M811 41q-72 0 -116 18.5t-69.5 51t-34.5 80t-9 102.5t9 102t34.5 80t69.5 51.5t116 18.5q70 0 115 -18.5t70.5 -51.5t34.5 -80t9 -102t-9 -102.5t-34.5 -80t-70.5 -51t-115 -18.5zM811 387q-43 0 -52 -27.5t-9 -66.5t9 -66.5t52 -27.5q45 0 53 27.5t8 66.5t-8 66.5 t-53 27.5zM305 821q-70 0 -115 18.5t-70.5 51.5t-34.5 79t-9 101q0 57 9 103.5t34.5 79t71 51t114.5 18.5q70 0 115 -18.5t70.5 -51t35 -79t9.5 -103.5q0 -55 -9.5 -101t-35 -79t-70.5 -51.5t-115 -18.5zM305 1163q-43 0 -52 -25.5t-9 -66.5q0 -39 9 -65.5t52 -26.5 q45 0 54.5 26.5t9.5 65.5q0 41 -9.5 66.5t-54.5 25.5zM823 1296q16 31 40 39t45.5 5t45.5 -15l95 -57q-203 -324 -764 -1217q-16 -27 -31.5 -34t-32 -5t-35.5 15l-116 71z" />
<glyph unicode="&#x26;" horiz-adv-x="1296" d="M1114 686q-4 -57 -16.5 -114.5t-28.5 -111.5t-35.5 -103.5t-40.5 -88.5l129 -145q29 -29 31 -57.5t-15.5 -47t-62.5 -18.5h-135l-92 104q-57 -53 -145.5 -90t-210.5 -37q-217 0 -321.5 102.5t-104.5 291.5q0 76 17 132t48 98t72 75t88 63q-49 66 -89 147t-40 158 q0 154 89 240t279 86q115 0 199 -25.5t123 -44.5v-94q0 -96 -98 -65q-47 16 -101.5 29.5t-107.5 13.5q-86 0 -123 -40t-37 -100q0 -25 11.5 -55.5t28.5 -63t38.5 -61t40.5 -47.5l342 -387q27 76 44 166t17 195h119q96 0 88 -105v0zM422 594q-70 -41 -102.5 -93t-32.5 -126 q0 -96 54 -154.5t153 -58.5q78 0 132 23.5t89 62.5z" />
<glyph unicode="'" horiz-adv-x="352" d="M252 903q-2 -43 -25.5 -67.5t-58.5 -24.5h-84l-16 420q0 41 23.5 65.5t64.5 24.5h112z" />
<glyph unicode="(" horiz-adv-x="614" d="M336 1350h94q41 0 62.5 -25t-0.5 -72q-51 -102 -79 -159.5t-48.5 -119t-33 -133t-12.5 -163.5q0 -86 16.5 -168t41 -155.5t55.5 -138t60 -116.5q23 -41 -1 -70.5t-65 -29.5h-92q-78 113 -123 206t-82 212t-37 244q0 150 38 276.5t83 218t123 193.5z" />
<glyph unicode=")" horiz-adv-x="614" d="M252 1350q78 -102 123 -193.5t83 -218.5t38 -276q0 -125 -37 -244t-82 -212t-83 -149.5t-40 -56.5h-92q-41 0 -64.5 29.5t-1.5 70.5q29 51 59.5 116t55.5 138.5t41 155.5t16 168q0 92 -11 163.5t-31.5 133t-48 119t-81.5 159.5q-23 45 -1 71t63 26h94z" />
<glyph unicode="*" horiz-adv-x="772" d="M160 1214q-20 33 -13 71t35 56l82 50l103 -166l57 88q23 35 56.5 44t68.5 -14l80 -49l-99 -151h91q41 0 65.5 -24.5t24.5 -65.5v-90h-183l50 -78q23 -31 15.5 -66t-40.5 -57l-78 -53l-108 172l-56 -90q-20 -35 -57 -43.5t-66 10.5l-79 51l94 154h-84q-41 0 -67.5 24.5 t-26.5 59.5v96h180z" />
<glyph unicode="+" horiz-adv-x="768" d="M256 725q0 92 88 92h137v-199h107q90 0 90 -88v-135h-197v-102q0 -96 -88 -96h-137v198h-106q-92 0 -93 84v139h199v107z" />
<glyph unicode="," horiz-adv-x="407" d="M188 270q66 0 110 -46t44 -118q0 -49 -12.5 -97t-29.5 -89t-35.5 -75.5t-28.5 -55.5l-107 33q-41 16 -20 65l38 93q-47 4 -78.5 47t-31.5 96q0 63 42.5 105t108.5 42z" />
<glyph unicode="-" horiz-adv-x="763" d="M143 395q-92 0 -92 84v139h529q90 0 90 -88v-135h-527z" />
<glyph unicode="." horiz-adv-x="376" d="M55 135q0 57 39 96t96 39q59 0 97.5 -38.5t38.5 -96.5q0 -59 -38 -97t-98 -38q-57 0 -96 38t-39 97z" />
<glyph unicode="/" horiz-adv-x="808" d="M258 -113h-145q-45 0 -69 26t-7 89l485 1315h146q45 0 68.5 -25.5t6.5 -89.5z" />
<glyph unicode="0" horiz-adv-x="1110" d="M532 -10q-152 0 -242.5 54t-139 147.5t-64.5 226.5t-16 274t20.5 269.5t71.5 216.5t141 137t229 49q150 0 241 -49t140.5 -137t67.5 -216t18 -270q0 -141 -11 -274t-56 -226.5t-138.5 -147.5t-261.5 -54zM532 1161q-76 0 -121.5 -29.5t-70.5 -86t-33 -149.5t-8 -204 q0 -121 8 -216t33 -153.5t71 -86t121 -27.5q76 0 123 26.5t73 83t34 153.5t8 220q0 109 -8 202t-34 150.5t-73 87t-123 29.5z" />
<glyph unicode="1" horiz-adv-x="632" d="M401 1364q86 0 86 -92v-1188q0 -84 -75 -84h-154v1145h-117q-80 -2 -80 88v131h340z" />
<glyph unicode="2" horiz-adv-x="1050" d="M111 1257q92 41 149 59.5t125 33t135 14.5q111 0 188.5 -24.5t127 -68.5t71 -104.5t21.5 -140.5q0 -55 -20.5 -116.5t-59.5 -118t-93.5 -119t-121.5 -140.5l-273 -313h514q82 0 82 -76v-143h-723q-66 0 -109.5 48t-44.5 123t48 124l332 369q113 117 182.5 203.5 t69.5 152.5q0 76 -44 108.5t-157 32.5q-80 0 -141.5 -21.5t-100.5 -37.5q-47 -23 -68.5 -16.5t-37.5 51.5z" />
<glyph unicode="3" horiz-adv-x="991" d="M885 999q0 -86 -17.5 -160.5t-74.5 -121.5q61 -35 90.5 -105.5t29.5 -208.5q0 -92 -14 -163.5t-60 -125t-133.5 -84t-230.5 -30.5q-43 0 -108.5 14.5t-132 35t-142.5 50.5q6 76 23 127q8 27 30.5 42.5t63.5 0.5q14 -6 40.5 -15t61.5 -16.5t77 -13.5t85 -6q51 0 90 7 t64.5 26.5t39 54.5t13.5 99q0 96 -28.5 142t-125.5 46h-297v143q0 82 78 82h170q53 0 88 8.5t54.5 27.5t27.5 54t8 97q0 92 -51 123.5t-137 31.5q-59 0 -117.5 -13t-130.5 -36q-43 -10 -64.5 -3t-35.5 58q-12 49 -25 119q55 20 112.5 36.5t124 29t136.5 12.5 q137 0 219 -30.5t126 -82t58.5 -115t14.5 -137.5z" />
<glyph unicode="4" horiz-adv-x="1058" d="M895 596q88 0 88 -86v-135h-147v-309q-4 -80 -84 -80h-146v389h-407q-84 0 -126 31.5t-46 96t43 134.5l403 614q47 66 95 89.5t116 23.5t110 -46t42 -116v-606h59zM606 1077l-305 -483h305v483z" />
<glyph unicode="5" horiz-adv-x="1026" d="M899 1364v-131q0 -84 -82 -84h-407l-82 -324h186q100 0 175 -18.5t125 -63.5t74.5 -123.5t24.5 -195.5q0 -109 -31.5 -194t-88 -138t-134 -79.5t-170.5 -26.5q-78 0 -151.5 16t-136 37.5t-121.5 54.5q23 68 47 131q12 41 37.5 47.5t52.5 -4.5q45 -18 106.5 -38.5 t147.5 -20.5q78 0 123 18.5t67.5 47t27.5 65.5t5 84q0 109 -47 148.5t-119 39.5h-299q-47 0 -76.5 15.5t-46 39t-20.5 52.5t2 57l113 434q14 57 38.5 89t53.5 46.5t58.5 16.5t54.5 2h493z" />
<glyph unicode="6" horiz-adv-x="1058" d="M539 831q80 0 154.5 -11t133 -54t93 -125t34.5 -223q0 -92 -23.5 -172t-74.5 -137.5t-133 -90t-199 -32.5q-127 0 -211 41t-136 107.5t-74.5 150.5t-22.5 170v454q0 129 47 217t121 140.5t166 75t184 22.5q57 0 107.5 -8t90.5 -19.5t74 -25.5q-16 -70 -39 -125 q-23 -63 -96 -43q-63 16 -143 18q-141 -2 -213 -62.5t-72 -166.5v-146q43 14 107 29.5t125 15.5zM524 207q74 0 116 18.5t63.5 49t26.5 68.5t5 75q0 98 -40 149t-156 51q-37 0 -77 -6t-77 -14t-76 -18v-119q0 -129 44 -191.5t171 -62.5z" />
<glyph unicode="7" horiz-adv-x="946" d="M696 1364q98 0 144.5 -39t46.5 -102.5t-33 -145.5l-512 -1077h-147q-49 0 -64.5 35t2.5 71l500 1031h-502q-84 0 -84 86v141h649z" />
<glyph unicode="8" horiz-adv-x="1064" d="M508 805q45 20 83 47t66.5 65.5t28.5 94.5q0 68 -41 105.5t-137 37.5t-137 -38t-41 -105q0 -55 28.5 -94t66.5 -66t83 -47zM508 207q98 0 169 48t71 155q0 86 -67 137t-173 71q-106 -20 -173 -71t-67 -137q0 -106 71 -154.5t169 -48.5zM508 -14q-123 0 -213 32.5 t-146.5 87t-83 126t-26.5 159.5q0 104 33.5 191.5t132.5 146.5q-53 53 -79 126t-26 151q0 176 106.5 267t301.5 91t301 -91t106 -267q0 -78 -25.5 -151t-78.5 -126q98 -59 132 -146t34 -192q0 -88 -26.5 -159.5t-83 -126t-146.5 -87t-213 -32.5z" />
<glyph unicode="9" horiz-adv-x="1005" d="M481 492q-84 0 -160.5 19t-137 66.5t-96.5 126t-36 199.5q0 109 31 195t86 145.5t131 90t166 30.5q147 0 234 -40t132.5 -118t58.5 -193.5t13 -264.5v-148q0 -133 -12 -235.5t-60.5 -186.5t-143.5 -138t-261 -54q-47 0 -97 9t-95.5 21.5t-92.5 30.5q16 70 31 125 q12 53 40 61.5t60 -0.5q14 -4 60.5 -14t99.5 -12q70 0 114 15.5t71.5 39t44 62t19.5 71.5t3 137q-27 -16 -79 -28t-124 -12zM473 1161q-104 0 -150.5 -59.5t-46.5 -175.5q0 -39 4.5 -79t24 -72t59 -52.5t113.5 -20.5q41 0 78 6.5t68.5 14.5t60.5 22v193q0 43 -9 83t-33 70.5 t-65 50t-104 19.5z" />
<glyph unicode=":" horiz-adv-x="397" d="M59 135q0 57 39 96t95 39q59 0 98 -38.5t39 -96.5q0 -59 -39 -97t-98 -38q-55 0 -94.5 38t-39.5 97zM59 760q0 55 39 94t95 39q59 0 98 -39t39 -94q0 -57 -39 -96t-98 -39q-55 0 -94.5 39t-39.5 96z" />
<glyph unicode=";" horiz-adv-x="376" d="M55 758q0 57 39 96t96 39q59 0 97.5 -39t38.5 -96q0 -55 -38 -94t-98 -39q-57 0 -96 39t-39 94zM326 137q0 -92 -33 -180t-66 -156l-112 35q-57 20 -29 103q6 14 14.5 33.5t12.5 37.5q-23 23 -39.5 49.5t-16.5 77.5t39 92t97 41q59 0 96 -39t37 -94z" />
<glyph unicode="&#x3c;" d="M78 416v202l975 439v-238l-670 -301l670 -303v-238z" />
<glyph unicode="=" horiz-adv-x="837" d="M186 184q-98 0 -98 84v142h533q90 0 90 -91v-135h-525zM180 582q-92 0 -92 84v139h533q90 0 90 -88v-135h-531z" />
<glyph unicode="&#x3e;" d="M78 -23v238l672 303l-672 301v238l975 -439v-202z" />
<glyph unicode="?" horiz-adv-x="890" d="M414 135q0 -59 -39 -97t-96 -38q-55 0 -94.5 38t-39.5 97q0 57 39 96t95 39q57 0 96 -39t39 -96zM166 692q0 92 88 92h127q98 0 139 35t41 107q0 92 -36 131t-107 39q-43 0 -81 -4.5t-69 -10.5q-53 -10 -76.5 3.5t-35.5 54.5q-20 51 -41 129q47 16 96 27.5t104.5 21.5 t114.5 10q74 0 138.5 -26.5t110.5 -79t72.5 -127t26.5 -168.5q0 -82 -20.5 -149.5t-66.5 -115t-118.5 -73t-179.5 -25.5v-205h-139q-88 0 -88 93v241z" />
<glyph unicode="@" horiz-adv-x="1931" d="M1726 662q0 -152 -34.5 -274t-94 -208t-137.5 -133t-166 -47q-53 0 -83.5 17.5t-49.5 37.5q-45 -23 -118.5 -39t-172.5 -16q-115 0 -194.5 33t-129.5 88t-72.5 130t-22.5 159q0 100 29.5 201.5t92 183.5t162 134t238.5 52q111 0 203 -23.5t184 -64.5l-74 -680 q0 -14 10.5 -22.5t22.5 -8.5q43 0 82 38t68.5 102.5t47 151.5t17.5 185q0 117 -41 215.5t-114.5 169t-174 109.5t-217.5 39q-156 0 -280.5 -57.5t-212.5 -155.5t-136.5 -230.5t-48.5 -281.5q0 -164 45 -294t128 -221t202 -140.5t266 -49.5q72 0 156 14.5t168 38t159.5 55.5 t129.5 67v-216q-41 -23 -105.5 -47t-146.5 -44.5t-174.5 -33t-186.5 -12.5q-221 0 -378.5 74t-259 196.5t-148.5 281.5t-47 331q0 197 63.5 362.5t179 285.5t275.5 187.5t352 67.5q180 0 318.5 -57.5t231.5 -155.5t141 -226t48 -269zM899 182q41 0 96.5 7.5t83.5 19.5 l58 561q-29 10 -73 20.5t-87 10.5q-78 0 -136.5 -38t-97 -95.5t-57 -126t-18.5 -129.5q0 -100 57 -165t174 -65z" />
<glyph unicode="A" horiz-adv-x="1288" d="M1202 100q14 -35 1 -67.5t-73 -32.5h-147l-104 287h-504l-101 -287h-153q-55 0 -68.5 33t0.5 67q92 244 443 1174q20 57 55 83.5t76 26.5q39 0 73.5 -26.5t59.5 -83.5zM797 512l-170 487l-168 -487h338z" />
<glyph unicode="B" horiz-adv-x="1198" d="M969 993q0 -53 -22.5 -124.5t-82.5 -137.5q115 -51 166 -141t51 -180q0 -61 -17 -133t-65.5 -133.5t-132.5 -102.5t-215 -41h-385q-82 0 -134 48t-52 140v1096q29 12 68.5 29.5t90 33t114 26.5t136.5 11q100 0 188.5 -23.5t153 -72.5t101.5 -123t37 -172zM309 815h195 q119 0 171 54.5t52 121.5q0 78 -53 127t-172 49q-33 0 -80 -6t-113 -16v-330zM618 229q66 0 105 16.5t59.5 43t26.5 56.5t6 58q0 31 -13.5 64t-41 59.5t-70.5 42t-104 15.5h-277v-355h309z" />
<glyph unicode="C" horiz-adv-x="1159" d="M651 1145q-172 0 -248.5 -119t-76.5 -328q0 -236 87 -360.5t279 -124.5q88 0 139.5 12.5t94.5 27.5t55 17q43 10 67.5 -7t24.5 -58v-129q-41 -27 -96 -45.5t-130 -32.5t-175 -14q-172 0 -281.5 55t-180.5 153.5t-99.5 224.5t-28.5 267q0 139 28.5 264t99.5 223.5 t180.5 153.5t281.5 55q94 0 167.5 -12t131 -28.5t102.5 -36.5v-148q0 -41 -22.5 -61.5t-69.5 -3.5q-23 6 -66 18t-111.5 24.5t-152.5 12.5z" />
<glyph unicode="D" horiz-adv-x="1267" d="M551 1364q182 0 298 -49t180.5 -138.5t88 -215t23.5 -277.5q0 -180 -31 -310t-101.5 -213t-183 -122t-274.5 -39h-279q-57 0 -93 16.5t-56.5 43t-27.5 59.5t-7 67v996q0 55 15.5 91t41 56.5t59.5 27.5t68 7h279zM557 229q109 0 176.5 34t105.5 95.5t51 144.5t13 181 q0 96 -13 179t-51 143.5t-105.5 95.5t-176.5 37h-240v-910h240z" />
<glyph unicode="E" horiz-adv-x="1054" d="M297 1135v-308h487v-139q0 -92 -90 -90h-397v-369h678v-143q-2 -86 -96 -86h-598q-213 0 -213 186v967q0 211 231 211h676v-143q0 -86 -84 -86h-594z" />
<glyph unicode="F" horiz-adv-x="1034" d="M297 1135v-301h471v-152q0 -78 -86 -78h-385v-520q0 -84 -72 -84h-157v1139q0 225 229 225h666v-143q0 -86 -86 -86h-580z" />
<glyph unicode="G" horiz-adv-x="1253" d="M997 799q129 0 129 -129v-598q-53 -25 -120.5 -43.5t-156.5 -31.5t-204 -13q-86 0 -185.5 24.5t-184.5 99t-142 213t-57 363.5t57 362.5t143 211t186.5 98t184.5 24.5q102 0 183 -14t143.5 -33.5t113.5 -44.5v-127q0 -53 -26.5 -69.5t-85.5 8.5q-121 41 -200 52t-128 11 q-98 0 -163.5 -40t-105.5 -105.5t-56.5 -152.5t-16.5 -181q0 -229 95.5 -349t295.5 -120q66 0 113 4t88 17v333h-207q-86 0 -86 90v140h393z" />
<glyph unicode="H" horiz-adv-x="1183" d="M1096 1364v-1280q0 -84 -84 -84h-146v604h-557v-520q0 -84 -82 -84h-147v1272q0 92 84 92h145v-530h557v448q0 82 78 82h152z" />
<glyph unicode="I" horiz-adv-x="430" d="M332 0h-230v1282q0 82 82 82h148v-1364z" />
<glyph unicode="J" horiz-adv-x="628" d="M547 1364v-1077q0 -145 -69.5 -204.5t-143.5 -79t-164 -19.5q-74 0 -184 14v149q0 90 92 76q49 -8 92 -8q70 0 108.5 16.5t38.5 63.5v987q0 82 91 82h139z" />
<glyph unicode="K" horiz-adv-x="1187" d="M309 0h-229v1282q0 82 78 82h151v-1364zM924 0l-547 561q-31 31 -49.5 58.5t-18.5 70.5q0 39 18.5 72t51.5 67l465 535h135q41 0 58.5 -13.5t19.5 -33t-7.5 -40t-21.5 -32.5l-491 -555l579 -571q16 -12 28.5 -32.5t10.5 -39t-21.5 -33t-64.5 -14.5h-145z" />
<glyph unicode="L" horiz-adv-x="1009" d="M950 229v-145q0 -84 -82 -84h-462q-88 0 -149.5 23.5t-101.5 66.5t-58.5 102.5t-18.5 129.5v960q0 82 80 82h149v-1004q0 -72 31 -101.5t94 -29.5h518z" />
<glyph unicode="M" horiz-adv-x="1615" d="M1204 1294q23 35 58.5 52.5t83 17.5t94.5 -37t47 -121v-1122q0 -84 -84 -84h-146v961l-335 -480q-47 -66 -127 -65.5t-127 67.5l-336 478v-881q0 -80 -84 -80h-146v1204q0 86 47.5 123t93.5 37t81.5 -18.5t58.5 -51.5l412 -604z" />
<glyph unicode="N" horiz-adv-x="1310" d="M1190 1364v-1200q0 -84 -44 -124t-90 -40t-83 20.5t-66 61.5l-557 862v-848q0 -96 -88 -96h-141v1208q0 74 42 115t89 41t83 -19.5t64 -62.5l562 -864v864q0 82 73 82h156z" />
<glyph unicode="O" horiz-adv-x="1341" d="M649 1380q178 0 288 -54t173.5 -148.5t87 -221.5t23.5 -272q0 -133 -19.5 -259t-80 -224.5t-169 -157.5t-295.5 -59q-184 0 -293.5 59t-171 156.5t-81 223.5t-19.5 261q0 131 19.5 256t80 223.5t168 157.5t289.5 59zM657 195q104 0 170 38.5t101 105.5t49 156t14 189 q0 102 -13 191.5t-48 155t-99.5 102t-173.5 36.5t-174 -36.5t-100 -102t-48 -155t-13 -191.5q0 -104 13 -194.5t48 -156t100 -102t174 -36.5z" />
<glyph unicode="P" horiz-adv-x="1198" d="M573 1384q125 0 221.5 -34.5t161 -98t97 -152.5t32.5 -198q-2 -109 -24.5 -206t-78.5 -170.5t-155.5 -118t-255.5 -46.5q-66 0 -132 12.5t-113 22.5v-395h-230v1253q90 51 207.5 91t269.5 40zM590 588q102 2 152.5 36.5t77 80t31.5 100.5t5 96q0 47 -12.5 93t-43 83 t-81.5 59.5t-127 22.5q-104 0 -165.5 -13t-100.5 -30v-483q37 -18 101.5 -31.5t162.5 -13.5z" />
<glyph unicode="Q" horiz-adv-x="1347" d="M1192 45v-123q0 -92 -98 -74l-615 156q-127 31 -200.5 98.5t-114.5 158.5t-53.5 199.5t-12.5 223.5q0 141 20.5 265t81 222.5t170 153.5t292.5 55q182 0 293.5 -55t171 -152.5t79 -221.5t19.5 -267q0 -121 -19.5 -254t-69 -218t-110.5 -130zM662 199q111 0 173 33.5 t97 96t49 154.5t14 201q0 106 -14 199.5t-49 152t-100.5 96t-169.5 37.5q-111 0 -174.5 -34.5t-98.5 -97t-48 -153.5t-13 -200t13 -201t48 -155.5t98.5 -96t174.5 -32.5z" />
<glyph unicode="R" horiz-adv-x="1226" d="M1151 109q18 -31 19 -51.5t-9 -33t-29.5 -18.5t-39.5 -6h-160l-365 516h-250v-516h-229v1272q70 31 141.5 54.5t155.5 40.5t172 17q256 0 386 -112.5t130 -333.5q0 -129 -59.5 -228.5t-184.5 -148.5zM606 729q39 0 79 12.5t74 39t55.5 70.5t21.5 110q0 61 -22.5 102 t-63.5 63.5t-99.5 31.5t-132.5 9q-31 0 -66.5 -4t-69.5 -11t-65 -17v-406h289z" />
<glyph unicode="S" horiz-adv-x="1179" d="M1026 1184q0 -109 -102 -84q-100 27 -182.5 44t-170.5 17q-86 0 -137 -12t-77.5 -34.5t-37 -54.5t-10.5 -71q0 -51 24.5 -81.5t60.5 -48t80 -25t118 -14.5t155.5 -21.5t155.5 -54t128 -117.5t54 -209q0 -90 -24.5 -170t-85 -138.5t-160.5 -92t-256 -33.5q-55 0 -117.5 7 t-123 16t-119 22.5t-101.5 23.5v152q0 98 97 63q16 -6 48.5 -15t78 -18.5t100.5 -16.5t117 -7q166 0 239.5 49t73.5 148q0 61 -34 98t-80 57.5t-97 27.5t-129 15t-152.5 26.5t-138 59.5t-104.5 109.5t-41 177.5q0 121 40 198.5t107.5 123t156.5 62.5t187 17q96 0 178 -15 t150 -33.5t131 -43.5v-104z" />
<glyph unicode="T" horiz-adv-x="1081" d="M1040 1364v-141q0 -88 -79 -88h-306v-1135h-229v1135h-385v149q0 80 84 80h915z" />
<glyph unicode="U" horiz-adv-x="1280" d="M1155 1364v-1235q-59 -41 -130 -71.5t-166 -52t-216 -21.5q-33 0 -78 3t-93 12t-97 24.5t-92 39.5q-86 51 -146.5 142.5t-60.5 243.5v825q0 90 92 90h137v-897q0 -66 21.5 -110t54.5 -71.5t75 -42t83 -20.5t75.5 -6h61.5q41 0 89 5t84 14.5t77 21.5v1010q0 96 88 96h141z " />
<glyph unicode="V" horiz-adv-x="1234" d="M1087 1364q47 0 71 -26.5t5 -92.5l-415 -1110q-57 -147 -153.5 -147t-150.5 147l-415 1114q-25 61 0.5 88t81.5 27h116l367 -979l371 979h122z" />
<glyph unicode="W" horiz-adv-x="1751" d="M1579 1364q98 0 72 -111l-258 -1114q-35 -152 -144.5 -151.5t-169.5 147.5l-239 592l-215 -590q-55 -150 -165 -149.5t-147 151.5l-258 1110q-25 115 86 115h121l223 -965l306 838h122q109 0 76 -107l-37 -96l262 -659l232 989h133z" />
<glyph unicode="X" horiz-adv-x="1292" d="M629 791l358 573h154q47 0 66.5 -29.5t-1.5 -66.5l-358 -586l350 -561q27 -37 27 -59.5t-12.5 -37t-32 -19.5t-31.5 -5h-150l-362 590q-8 18 -16 35q-8 -16 -17 -35l-352 -590h-162q-14 0 -33.5 5t-32 19.5t-11.5 37t26 59.5l350 561l-354 584q-23 39 -4.5 68.5 t65.5 29.5h156l352 -576q6 -12 12 -22q7 13 13 25z" />
<glyph unicode="Y" horiz-adv-x="1298" d="M1157 1364q35 0 52.5 -12.5t23.5 -28.5t2 -34.5t-12 -31.5l-478 -700v-471q0 -86 -79 -86h-150v561l-469 686q-12 12 -18 31.5t-1 39t23.5 33t52.5 13.5h146l381 -549l379 549h147z" />
<glyph unicode="Z" horiz-adv-x="1187" d="M1108 229v-143q0 -86 -84 -86h-819q-53 2 -91 27.5t-54.5 63.5t-12.5 82t33 81l698 881h-618q-100 0 -101 88v141h844q59 2 105.5 -18.5t71 -57.5t20.5 -86t-47 -106l-680 -867h735z" />
<glyph unicode="[" horiz-adv-x="602" d="M121 0v1348h403v-181h-182v-989h182v-178h-403z" />
<glyph unicode="\" horiz-adv-x="743" d="M489 -113l-487 1315q-18 63 5.5 89t68.5 26h145l484 -1315q23 -63 -1 -89t-71 -26h-144z" />
<glyph unicode="]" horiz-adv-x="602" d="M51 0v178h185v989h-185v181h404v-1348h-404z" />
<glyph unicode="^" d="M582 1350q39 0 66.5 -15.5t46 -37t30.5 -47t20 -46.5l158 -393q16 -45 2 -69.5t-63 -24.5h-152l-108 317l-109 -317h-151q-49 0 -63.5 24.5t1.5 69.5l158 393q8 20 20.5 46t30.5 47.5t46 37t67 15.5z" />
<glyph unicode="_" horiz-adv-x="917" d="M184 -225q-92 0 -92 88v137h623q92 0 92 -88v-137h-623z" />
<glyph unicode="`" horiz-adv-x="430" d="M207 983l-256 338h246l206 -338h-196z" />
<glyph unicode="a" horiz-adv-x="954" d="M430 907q80 0 149.5 -15t123 -51t85 -95.5t31.5 -149.5v-526q-49 -31 -104.5 -52.5t-127 -37t-159.5 -15.5q-102 0 -170 18.5t-118 53.5t-80.5 94t-30.5 145q0 133 86 199t240.5 83t240.5 26v30q0 27 -36 50.5t-130 23.5q-80 -2 -139.5 -12t-97.5 -25q-49 -16 -72 3.5 t-23 60.5v135q45 14 92.5 25.5t103.5 20.5t136 11zM594 393q-86 -8 -173 -13t-136 -34t-47 -80q0 -43 45 -72.5t150.5 -29.5t160.5 18v211z" />
<glyph unicode="b" horiz-adv-x="1011" d="M498 893q205 0 307 -121t102 -326q0 -96 -23.5 -180t-72.5 -145.5t-127 -97t-186 -35.5q-86 0 -163 15t-140.5 36.5t-118.5 50.5v1270h139q90 0 90 -100v-394q53 16 97.5 21.5t95.5 5.5zM467 186q66 0 107.5 16.5t65.5 49.5t33 82t9 112q0 78 -15.5 126.5t-42 76 t-59.5 37.5t-67 10q-66 0 -110 -9t-83 -25v-451q41 -14 83 -19.5t79 -5.5z" />
<glyph unicode="c" horiz-adv-x="917" d="M680 221q41 10 62.5 -3t31.5 -60l21 -115q-45 -16 -94.5 -27.5t-106.5 -19.5t-117 -8q-207 0 -314.5 117.5t-107.5 326.5q0 100 23.5 185t75 146.5t131.5 96.5t192 35q70 0 151 -12.5t160 -40.5v-113q0 -43 -23.5 -62.5t-62.5 -7.5q-12 4 -37.5 10.5t-57.5 12.5t-66.5 11 t-65.5 5q-55 -2 -92 -23.5t-60.5 -58t-32.5 -84t-9 -100.5q0 -47 9 -90t31.5 -76t60.5 -51t93 -18t112.5 9t92.5 15z" />
<glyph unicode="d" horiz-adv-x="1030" d="M805 1360q92 0 92 -100v-1170q-51 -29 -109.5 -50.5t-129 -36.5t-152.5 -15q-225 0 -332.5 119.5t-107.5 343.5q0 31 4 76.5t18 95t41 97.5t72 87t112.5 62.5t161.5 23.5q100 0 193 -25v492h137zM668 662q-35 16 -77 25t-106 9q-31 0 -64.5 -10t-63 -36.5t-48 -75 t-18.5 -123.5q0 -57 8 -105.5t31.5 -84.5t66.5 -55.5t113 -19.5q57 0 95 6.5t63 16.5v453z" />
<glyph unicode="e" horiz-adv-x="946" d="M842 594q0 -80 -23.5 -133t-64.5 -82t-98.5 -41t-127.5 -12h-239q16 -78 73.5 -108t133.5 -30q66 0 104.5 12.5t91.5 32.5q41 12 62.5 -5t21.5 -56v-121q-43 -18 -87 -31.5t-95 -22.5t-105 -9q-59 0 -133.5 15t-141.5 60.5t-113 129t-46 227.5q0 174 47.5 267t114 142.5 t139 63.5t123.5 14q55 0 119 -16.5t118 -53t90 -97t36 -146.5zM471 518q96 0 133 13.5t37 56.5q0 61 -44 95t-116 34q-51 0 -88 -16.5t-61.5 -44t-38.5 -59.5t-21 -79h199z" />
<glyph unicode="f" horiz-adv-x="729" d="M483 1317q59 0 125 -12.5t107 -22.5q-4 -61 -8.5 -86t-12.5 -53q-12 -41 -30.5 -51.5t-69.5 2.5q-16 4 -43 6t-49 2q-47 0 -85 -17.5t-38 -68.5v-123h246v-129q0 -84 -82 -84h-164v-598q0 -82 -82 -82h-147v680h-89v125q0 88 89 88v162q0 76 28.5 126t77.5 80.5t107.5 43 t119.5 12.5z" />
<glyph unicode="g" horiz-adv-x="1019" d="M494 907q78 0 149.5 -17.5t134 -41t119.5 -55.5v-760q0 -217 -110.5 -316.5t-331.5 -99.5q-39 0 -100.5 7t-106.5 24q-72 23 -53 100l30 135q35 -12 70 -21t78 -14.5t84 -5.5q70 0 111.5 14.5t64 37t29 53t6.5 65.5v8q-31 -8 -75 -13t-97 -5q-68 0 -145 15.5t-141.5 63.5 t-107.5 136t-43 236q0 47 14.5 123.5t60.5 150.5t132.5 127t227.5 53zM506 209q53 0 93 6t69 16v449q-63 23 -148 22q-119 0 -172 -56t-53 -191q0 -111 45 -178.5t166 -67.5z" />
<glyph unicode="h" horiz-adv-x="991" d="M520 893q184 0 268 -79t84 -224v-510q0 -80 -75 -80h-154v594q0 102 -123 102q-53 0 -101 -9t-89 -25v-578q0 -84 -72 -84h-158v1360h140q90 0 90 -90v-410q45 16 95 24.5t95 8.5z" />
<glyph unicode="i" horiz-adv-x="475" d="M336 1157q0 -63 -39 -99t-96 -36q-53 0 -93 36t-40 99q0 59 39.5 95t93.5 36q57 0 96 -36t39 -95zM356 221q72 2 72 -76v-145h-154q-84 0 -135 47t-51 174v672h148q82 0 81 -80v-561q0 -16 8.5 -23.5t22.5 -7.5h8z" />
<glyph unicode="j" horiz-adv-x="573" d="M457 1157q0 -63 -39 -99t-96 -36q-53 0 -93.5 36t-40.5 99q0 59 40 95t94 36q57 0 96 -36t39 -95zM215 893h131q98 0 98 -90v-889q0 -70 -20.5 -131.5t-61 -106.5t-104 -70.5t-147.5 -25.5q-39 0 -82 5t-84 16q-47 10 -63.5 37.5t-8.5 74.5l29 121q33 -8 63.5 -14 t63 -9.5t61.5 -3.5q43 0 67.5 14.5t37 39t16.5 57.5t4 72v903z" />
<glyph unicode="k" horiz-adv-x="1044" d="M311 0h-229v1360h143q86 0 86 -96v-1264zM563 479l398 -379q12 -12 14 -26.5t-2 -31.5t-17.5 -29.5t-37.5 -12.5h-146l-393 365q-23 23 -45.5 49t-22.5 67q0 43 21.5 70t52.5 55l315 287h136q53 0 71.5 -29.5t-28.5 -77.5z" />
<glyph unicode="l" horiz-adv-x="561" d="M498 92q8 -39 -3.5 -57.5t-45.5 -28.5q-23 -8 -59 -13t-77 -5q-74 0 -120 19.5t-71.5 56t-34.5 87t-9 111.5v1098h141q88 0 88 -100v-1022q0 -41 51 -41q29 0 61 7t52 15z" />
<glyph unicode="m" horiz-adv-x="1585" d="M1073 893q154 0 248 -72.5t94 -234.5v-498q0 -88 -86 -88h-143v584q0 109 -113 112q-59 0 -110.5 -12t-92.5 -29q4 -18 4 -39.5v-31.5v-500q0 -84 -79 -84h-150v594q-4 49 -33.5 74.5t-83.5 27.5q-59 0 -108 -7t-90 -21v-576q0 -92 -80 -92h-150v780q61 31 127 54.5 t142.5 41t158.5 17.5q78 0 145.5 -19.5t114.5 -54.5q68 35 143.5 54.5t141.5 19.5z" />
<glyph unicode="n" horiz-adv-x="1007" d="M520 893q170 0 262 -76t92 -252v-481q0 -84 -77 -84h-152v580q0 39 -12 61.5t-33.5 34.5t-49.5 16t-61 4q-39 0 -89 -9t-87 -19v-584q0 -84 -84 -84h-145v780q55 31 118.5 54.5t142.5 41t175 17.5z" />
<glyph unicode="o" horiz-adv-x="1026" d="M483 907q219 0 321.5 -116.5t102.5 -341.5q0 -113 -22.5 -197t-75.5 -142.5t-133 -89t-193 -30.5q-223 0 -323.5 112.5t-100.5 346.5q0 113 23.5 195.5t74 140t130 88t196.5 34.5zM483 186q63 2 101.5 18.5t59 48.5t27.5 79t7 117q0 61 -5 108t-24.5 81t-58.5 52.5 t-107 18.5q-63 0 -101 -15.5t-58.5 -46.5t-27.5 -79t-7 -119q0 -68 4 -114t23.5 -78t58 -50.5t108.5 -20.5z" />
<glyph unicode="p" horiz-adv-x="1083" d="M535 893q211 0 312 -123t101 -332q0 -98 -23.5 -181t-73.5 -142.5t-128 -93t-188 -33.5q-47 0 -104.5 7t-111.5 25v-344q0 -104 -102 -104h-127v1231q57 25 123 43t146 32.5t176 14.5zM535 184q49 2 84.5 23.5t59 56.5t34 80t10.5 94t-6 95.5t-26.5 82t-57.5 57t-98 21.5 q-135 0 -216 -32v-429q43 -16 95.5 -32.5t120.5 -16.5z" />
<glyph unicode="q" horiz-adv-x="1044" d="M492 893q123 0 230 -27.5t189 -66.5v-1125q-2 -102 -86 -102h-143v448q-47 -18 -95 -25t-95 -7q-207 0 -310.5 122.5t-103.5 329.5q0 96 23.5 179t73.5 143.5t129 95.5t188 35zM682 668q-35 10 -73 18t-103 8q-61 0 -100 -17.5t-63 -50t-32 -79.5t-8 -107q0 -47 8 -89 t29.5 -73.5t58.5 -51t93 -19.5q66 0 108.5 7t81.5 24v430z" />
<glyph unicode="r" horiz-adv-x="833" d="M92 614q0 45 22.5 94.5t68.5 90.5t117 67.5t167 26.5q57 0 111.5 -7t94.5 -21.5t67.5 -34t18.5 -60.5t-17.5 -66.5t-24.5 -70.5q-35 8 -70 15t-78 12.5t-92 5.5q-47 0 -76.5 -7.5t-47 -19.5t-24.5 -26.5t-7 -26.5v-502q0 -84 -86 -84h-144v614z" />
<glyph unicode="s" horiz-adv-x="927" d="M754 842q-8 -63 -19 -113q-23 -82 -102 -59q-27 8 -78 17t-123 9q-53 0 -83 -7t-44 -16t-17 -21.5t-3 -24.5q0 -29 38.5 -40.5t112.5 -20.5t138.5 -19t112.5 -41t74.5 -85t26.5 -142q0 -80 -35.5 -136.5t-94 -90.5t-131 -49t-144.5 -15q-63 0 -118.5 7t-102.5 18.5 t-90 27.5v121q0 96 86 71q35 -10 93 -19t136 -9q109 2 143.5 20.5t34.5 50.5q0 27 -13 42.5t-34.5 22.5t-48.5 8t-71 5t-107.5 16.5t-114.5 42t-83 79t-32 126.5q0 74 34 127.5t88.5 88t122 51t134.5 16.5q63 0 120.5 -9t105 -21.5t88.5 -28.5z" />
<glyph unicode="t" horiz-adv-x="694" d="M332 670v-396q0 -43 24.5 -58t83.5 -15q23 0 44.5 3t56.5 9q43 8 60 -9.5t17 -60.5v-104q-20 -16 -79.5 -33.5t-137.5 -17.5q-49 0 -103 14t-97 47t-71 85t-28 128v883l140 33q10 2 25.5 4t29.5 -3t24.5 -20.5t10.5 -50.5v-215h252v-137q0 -86 -80 -86h-172z" />
<glyph unicode="u" horiz-adv-x="978" d="M459 -12q-106 0 -178 31.5t-117 81t-63.5 109.5t-18.5 120v479q0 84 84 84h145v-567q0 -53 40 -86t108 -33q59 0 103 6t81 23v573q0 84 88 84h141v-793q-47 -33 -106 -56.5t-136 -39.5t-171 -16z" />
<glyph unicode="v" horiz-adv-x="987" d="M852 893q41 0 59.5 -23.5t1.5 -72.5l-260 -668q-55 -141 -163.5 -141t-165.5 143l-263 666q-16 49 2.5 72.5t63.5 23.5h147l211 -592l217 592h150z" />
<glyph unicode="w" horiz-adv-x="1488" d="M1321 893q45 0 60.5 -18.5t-1.5 -63.5l-264 -684q-53 -139 -168 -139q-106 0 -162 141l-67 166l-64 -168q-53 -139 -166 -139q-109 0 -163 141l-263 668q-16 47 -1.5 71.5t65.5 24.5h149l213 -590l216 590h157q47 0 61.5 -22.5t-5.5 -69.5l-78 -191l112 -307l211 590h158 z" />
<glyph unicode="x" horiz-adv-x="991" d="M481 625l205 268h148q41 0 57 -11.5t18 -25.5t-4 -27.5t-10 -17.5l-258 -342l254 -352q16 -16 23.5 -37t2 -38t-25 -29.5t-60.5 -12.5h-129l-221 307l-221 -307h-129q-41 0 -60.5 12.5t-24.5 29.5t2 37.5t24 37.5l254 352l-258 342q-4 4 -10.5 17.5t-4.5 27.5t18.5 25.5 t57.5 11.5h147z" />
<glyph unicode="y" horiz-adv-x="1083" d="M758 893h160q27 2 45 -6t27 -26.5t-3 -59.5l-278 -731q-47 -131 -89 -224.5t-92.5 -153t-118 -87t-165.5 -27.5q-29 0 -45.5 1t-38.5 5q-98 20 -80 109l29 127q23 -8 58.5 -15.5t78.5 -7.5t67.5 13.5t42 31t29.5 36t16 28.5l48 94q-43 0 -58 37l-332 762q-8 16 -11 32.5 t3 31t22.5 22.5t47.5 8h151l265 -635z" />
<glyph unicode="z" horiz-adv-x="966" d="M879 221v-137q-2 -84 -78 -84h-619q-43 0 -58 9t-24.5 26.5t-9.5 48.5v84l453 508h-346q-39 0 -61.5 14.5t-22.5 67.5v135h655q33 0 53.5 -8t28.5 -25.5t8 -48.5v-100l-430 -490h451z" />
<glyph unicode="{" horiz-adv-x="696" d="M471 0q-121 0 -190.5 59.5t-69.5 184.5v176q0 90 -28.5 138t-106.5 52v176q78 4 106.5 58.5t28.5 142.5v119q0 125 71.5 183.5t188.5 58.5h141v-181h-90q-53 0 -71.5 -28.5t-18.5 -73.5v-139q0 -72 -20.5 -129.5t-71.5 -96.5q53 -35 72.5 -90t19.5 -131v-194 q0 -45 21.5 -76t68.5 -31h90v-178h-141z" />
<glyph unicode="|" horiz-adv-x="608" d="M190 0v1348h201v-1348h-201z" />
<glyph unicode="}" horiz-adv-x="700" d="M590 608q-76 0 -103.5 -50t-27.5 -138v-176q0 -66 -20.5 -112t-55.5 -74.5t-82 -43t-102 -14.5h-144v178h90q47 0 70 31t23 76v194q0 80 19 135.5t71 87.5q-51 39 -70.5 95.5t-19.5 128.5v139q0 45 -19.5 73.5t-73.5 28.5h-90v181h144q115 0 187.5 -58.5t72.5 -183.5 v-119q0 -90 26.5 -143t104.5 -58v-178z" />
<glyph unicode="~" d="M1053 668q-10 -178 -82 -246t-168 -68q-66 0 -128.5 19.5t-118.5 41t-103 36t-86 14.5q-27 0 -44.5 -29.5t-27.5 -70.5h-189q10 156 83 235.5t169 79.5q66 0 129.5 -19.5t117.5 -42t102.5 -36t89.5 -13.5q27 0 44 29t25 70h187z" />
<glyph unicode="&#xa3;" horiz-adv-x="1001" d="M150 598q-94 0 -95 86v117h121q-18 82 -18 174q0 125 29.5 201.5t78.5 119.5t114.5 57.5t139.5 14.5q76 0 137.5 -11t110.5 -26.5t90 -36.5v-90q0 -47 -22.5 -70.5t-77.5 -11.5q-61 14 -116.5 29.5t-117.5 15.5q-90 0 -121.5 -51t-31.5 -153q0 -39 8 -80t18 -82h258 q92 0 93 -90v-113h-299q4 -29 6 -55.5t2 -55.5q0 -70 -19.5 -142.5t-70.5 -143.5h467q92 0 92 -88v-113h-783q-94 0 -94 86v94q113 84 153 156t40 141q0 33 -4.5 61.5t-12.5 59.5h-75z" />
<glyph unicode="&#xa9;" horiz-adv-x="1581" d="M967 440q4 2 12 2q47 14 59 -36l15 -84q-53 -20 -117 -30.5t-150 -10.5q-109 0 -179 31.5t-111 86t-57.5 124t-16.5 145.5q0 84 17.5 157.5t58.5 129t111.5 87t176.5 31.5q66 0 134.5 -8t130.5 -35v-88q0 -47 -50 -37l-16 4q-29 6 -87 17.5t-114 11.5 q-70 -2 -110.5 -29.5t-63.5 -62.5q-20 -35 -26 -79t-6 -99q0 -45 6 -89t27.5 -79t62.5 -57.5t110 -22.5q53 0 104.5 8t78.5 12zM104 676q0 139 53.5 263t145.5 216t216 145.5t263 53.5t262 -53.5t215.5 -145.5t145.5 -216t53 -263t-53 -262t-145.5 -215.5t-215 -145.5 t-262.5 -53q-139 0 -263 53t-216 145.5t-145.5 215.5t-53.5 262zM236 676q0 -113 43 -212t117.5 -173t174 -117t211.5 -43q113 0 212.5 43t174 117t117.5 173t43 212t-43 212t-117.5 174t-174 118t-212.5 43t-212 -43t-173.5 -118t-117.5 -174t-43 -212z" />
<glyph unicode="&#xab;" horiz-adv-x="954" d="M649 313l-239 367l239 354h246l-254 -356l250 -365h-242zM285 313l-242 367l242 354h243l-252 -356l250 -365h-241z" />
<glyph unicode="&#xad;" horiz-adv-x="763" d="M143 395q-92 0 -92 84v139h529q90 0 90 -88v-135h-527z" />
<glyph unicode="&#xae;" horiz-adv-x="897" d="M100 1018q0 74 27 137.5t74 110.5t109.5 73.5t133.5 26.5q72 0 135.5 -26.5t110.5 -73.5t74 -110.5t27 -137.5q0 -72 -27 -134.5t-74 -109.5t-110.5 -73.5t-135.5 -26.5t-134 26.5t-109 73.5t-74 109.5t-27 134.5zM168 1018q0 -57 21.5 -107.5t59.5 -87.5t88 -58.5 t107 -21.5t108.5 21.5t89.5 58.5t59.5 87.5t21.5 107.5t-21.5 108.5t-59.5 89t-89 59t-109 21.5q-57 0 -107 -21.5t-88 -59t-59.5 -89t-21.5 -108.5zM614 844q12 -23 -8 -23h-45l-115 164h-94v-164h-51v389q25 14 59.5 23.5t77.5 9.5q152 0 152 -133q0 -86 -80 -117 q6 -8 10 -15t10 -13q23 -31 38.5 -52.5t25.5 -38.5zM453 1034q29 0 55.5 18.5t26.5 65.5q0 45 -29 60.5t-82 15.5q-23 0 -39 -4t-33 -10v-146h101z" />
<glyph unicode="&#xb7;" horiz-adv-x="407" d="M205 614q25 0 44 -8t36 -24q31 -35 30 -80q0 -47 -30 -80q-16 -16 -36 -24.5t-44 -8.5q-43 0 -80 33q-33 37 -33 80q0 25 8.5 44t24.5 36q37 32 80 32z" />
<glyph unicode="&#xbb;" horiz-adv-x="954" d="M676 313h-240l250 361l-250 360h240l239 -360zM313 313h-241l247 361l-247 360h241l240 -360z" />
<glyph unicode="&#xd7;" horiz-adv-x="808" d="M473 713q29 29 63.5 29.5t63.5 -27.5l98 -97l-139 -141l70 -74q35 -31 35 -65.5t-29 -63.5l-96 -100l-142 141l-73 -69q-29 -31 -67 -32t-60 28l-99 92l140 141l-76 76q-25 27 -27 64.5t23 64.5l100 100l141 -143z" />
<glyph unicode="&#xf7;" horiz-adv-x="825" d="M170 395q-94 0 -94 84v139h528q92 0 92 -88v-135h-526zM250 211q0 55 39 94t94 39t94 -39t39 -94q0 -57 -39 -96t-94 -39t-94 39t-39 96zM520 803q0 -55 -39 -94t-94 -39t-95 39t-40 94q0 57 40 96t95 39t94 -39t39 -96z" />
<glyph unicode="&#x2000;" horiz-adv-x="765" />
<glyph unicode="&#x2001;" horiz-adv-x="1530" />
<glyph unicode="&#x2002;" horiz-adv-x="765" />
<glyph unicode="&#x2003;" horiz-adv-x="1530" />
<glyph unicode="&#x2004;" horiz-adv-x="510" />
<glyph unicode="&#x2005;" horiz-adv-x="382" />
<glyph unicode="&#x2006;" horiz-adv-x="255" />
<glyph unicode="&#x2007;" horiz-adv-x="255" />
<glyph unicode="&#x2008;" horiz-adv-x="191" />
<glyph unicode="&#x2009;" horiz-adv-x="306" />
<glyph unicode="&#x200a;" horiz-adv-x="85" />
<glyph unicode="&#x2010;" horiz-adv-x="763" d="M143 395q-92 0 -92 84v139h529q90 0 90 -88v-135h-527z" />
<glyph unicode="&#x2011;" horiz-adv-x="763" d="M143 395q-92 0 -92 84v139h529q90 0 90 -88v-135h-527z" />
<glyph unicode="&#x2012;" horiz-adv-x="763" d="M143 395q-92 0 -92 84v139h529q90 0 90 -88v-135h-527z" />
<glyph unicode="&#x2013;" horiz-adv-x="888" d="M174 395q-92 0 -92 84v139h625q90 0 90 -88v-135h-623z" />
<glyph unicode="&#x2014;" horiz-adv-x="1603" d="M174 395q-92 0 -92 84v139h1339q90 0 90 -88v-135h-1337z" />
<glyph unicode="&#x2018;" horiz-adv-x="378" d="M190 887q-63 0 -103 43t-40 108q0 70 29.5 136.5t85.5 164.5l86 -26q35 -14 47 -39t-4 -60l-29 -67q31 -16 50.5 -46t19.5 -75q0 -59 -41.5 -99t-100.5 -40z" />
<glyph unicode="&#x2019;" horiz-adv-x="376" d="M184 1339q63 0 103.5 -43t40.5 -108q0 -70 -30 -136.5t-85 -164.5l-86 26q-35 14 -47 39t4 60l29 67q-31 16 -50.5 46t-19.5 75q0 59 41 99t100 40z" />
<glyph unicode="&#x201c;" horiz-adv-x="729" d="M526 887q-63 0 -103 43t-40 108q0 70 29.5 136.5t85.5 164.5l86 -26q35 -14 47 -39t-4 -60l-29 -67q31 -16 50.5 -46t19.5 -75q0 -59 -41.5 -99t-100.5 -40zM190 887q-63 0 -103 43t-40 108q0 70 29.5 136.5t85.5 164.5l86 -26q35 -14 47 -39t-4 -60l-29 -67 q31 -16 50.5 -46t19.5 -75q0 -59 -41.5 -99t-100.5 -40z" />
<glyph unicode="&#x201d;" horiz-adv-x="724" d="M184 1339q63 0 103.5 -43t40.5 -108q0 -70 -30 -136.5t-85 -164.5l-86 26q-35 14 -47 39t4 60l29 67q-31 16 -50.5 46t-19.5 75q0 59 41 99t100 40zM520 1339q63 0 103.5 -43t40.5 -108q0 -70 -30 -136.5t-85 -164.5l-86 26q-35 14 -47.5 39t4.5 60l29 67 q-31 16 -50.5 46t-19.5 75q0 59 41 99t100 40z" />
<glyph unicode="&#x2022;" horiz-adv-x="720" d="M115 627q0 51 19.5 95t53 78t77.5 53t95 19t95.5 -19t78 -53t53 -78t19.5 -95t-19.5 -95.5t-53 -78t-77.5 -53t-96 -19.5q-51 0 -95 19.5t-77.5 53t-53 78t-19.5 95.5z" />
<glyph unicode="&#x2026;" horiz-adv-x="1087" d="M731 135q0 57 39 96t94 39q57 0 96 -38.5t39 -96.5q0 -59 -38.5 -97t-96.5 -38q-55 0 -94 38t-39 97zM395 135q0 57 39 96t96 39q55 0 94.5 -38.5t39.5 -96.5q0 -59 -39 -97t-95 -38q-57 0 -96 38t-39 97zM59 135q0 57 39 96t95 39q55 0 95 -38.5t40 -96.5q0 -59 -40 -97 t-95 -38t-94.5 38t-39.5 97z" />
<glyph unicode="&#x202f;" horiz-adv-x="306" />
<glyph unicode="&#x205f;" horiz-adv-x="382" />
<glyph unicode="&#x20ac;" horiz-adv-x="1144" d="M362 680v-27.5t3 -36.5h364q90 0 90 -90v-114h-426q29 -98 87.5 -151.5t172.5 -53.5q78 0 116 11t122 44q41 10 64.5 -9.5t23.5 -59.5v-119q-31 -25 -75 -43.5t-108.5 -32.5t-160.5 -14q-80 0 -139.5 14t-104.5 41t-81 64.5t-85 110.5t-71 198h-23q-98 0 -98 86v118h102 v64h-35q-90 0 -90 84v119h140q12 72 33.5 134t56 111.5t71.5 87t83 64.5t104.5 42t136.5 15q88 0 152.5 -12t111.5 -29.5t80 -38.5v-139q0 -41 -21.5 -60.5t-64.5 -2.5q-59 25 -115.5 39t-163.5 14q-109 0 -158.5 -59.5t-70.5 -165.5h385q90 0 90 -88v-115h-498z" />
<glyph unicode="&#x2122;" horiz-adv-x="1398" d="M539 1360v-53q0 -31 -29 -31h-172v-596h-88v596h-201v61q0 23 29 23h461zM1196 1333q10 14 29.5 21.5t38 3.5t33 -19.5t14.5 -42.5v-589q0 -12 -5.5 -19.5t-21.5 -7.5h-57v545l-209 -297q-20 -29 -53 -25t-62 37l-198 287v-522q0 -8 -3.5 -16.5t-23.5 -8.5h-55v614 q0 31 13 46.5t31.5 19.5t37 -3t28.5 -24l232 -338z" />
<glyph unicode="&#x25fc;" horiz-adv-x="890" d="M0 891h891v-891h-891v891z" />
</font>
</defs>
</svg>
